<svg aria-hidden="true" style="position: absolute; width: 0; height: 0; overflow: hidden;" version="1.1" xmlns:xlink="http://www.w3.org/1999/xlink" xmlns="http://www.w3.org/2000/svg">
<defs>
    <symbol id="casino" viewBox="0 0 512 512" >
        <path class="b3774" d="m479,34.66L285.93.61c-21.72-3.83-42.42,10.67-46.25,32.39l-1.83,10.36c27.92,3.44,51.51,23.55,58.94,51.27l11.8,44.04c6.25-2.71,13.33-3.68,20.54-2.41,13.68,2.41,24.17,12.26,28.08,24.64,7.91-10.3,21.14-15.96,34.81-13.55,19.58,3.45,32.65,22.12,29.19,41.69-7.5,42.53-53.14,76.72-74.8,90.78l33.07,123.42c1.77,6.62,2.51,13.27,2.35,19.79l27.82,4.91c21.71,3.83,42.42-10.67,46.25-32.39l55.48-314.64c3.83-21.72-10.67-42.42-32.39-46.25Z" fill="#F0F0F0" stroke-width="0px"></path>
        <path class="b3774" d="m267.87,102.38c-4.78-17.84-20.91-29.6-38.54-29.6-3.42,0-6.9.44-10.36,1.37L29.6,124.89c-21.3,5.71-33.94,27.6-28.23,48.9l82.69,308.61c4.78,17.84,20.91,29.6,38.54,29.6,3.42,0,6.9-.44,10.36-1.37l189.37-50.74c21.3-5.71,33.94-27.6,28.23-48.9l-82.69-308.61Zm-33.41,180.42l-28.96,85.74c-2.42,7.17-11.36,9.57-17.05,4.57l-67.95-59.77c-3.21-2.83-4.41-7.3-3.04-11.35l28.96-85.74c2.42-7.17,11.36-9.57,17.05-4.57l67.95,59.77c3.21,2.83,4.41,7.3,3.04,11.35Z" fill="#F0F0F0" stroke-width="0px"></path>
    </symbol>

    <symbol id="slots" viewBox="0 0 512 512" >
        <path class="b6549" d="m367.09,243.53h0v-76.53c0-46.95,18.28-91.09,51.48-124.28l23.7-23.71h-33.52c-65.22,0-124.33,26.6-167.1,69.5-11.23-10.78-47.23-41.72-96.74-41.72-58.58,0-98.67,43.65-100.61,45.51l-10.48,10.04,10.48,10.04c1.93,1.86,42.02,45.51,100.61,45.51,21.21,0,39.89-5.79,55.31-13.17-15.66,29.47-25.04,63.58-26.91,98.76-62.62,6.72-111.73,59.26-111.73,123.64,0,68.91,56.06,125.9,124.98,125.9,21.23,0,41.57-5.98,59.81-15.99-28.3-27.74-45.93-67.25-45.93-109.92s17.63-81.25,45.93-108.99c-14.04-7.7-29.35-12.94-45.33-14.98,6.04-98.15,80.16-179.12,175.74-193.88-24.34,34.17-37.47,74.95-37.47,117.77v76.52c-62.32,7.01-111.09,59.42-111.09,123.57,0,68.91,56.06,125.9,124.98,125.9s124.98-56.99,124.98-125.9c0-64.16-48.77-116.56-111.09-123.57Zm-180.52,81.9c-22.97,0-41.66,18.69-41.66,41.66h-27.77c0-38.28,31.15-69.43,69.43-69.43v27.77Zm166.64,0c-22.97,0-41.66,18.69-41.66,41.66h-27.77c0-38.28,31.15-69.43,69.43-69.43v27.77Z" fill="#F0F0F0" stroke-width="0px"></path>
    </symbol>

    <symbol id="live-casino" viewBox="0 0 512 512">
        <path class="b4662" d="m256,420c12.29,0,22.03-25.7,26.9-51.65-9.73-3.97-18.6-9.38-26.9-15.36-8.29,5.98-17.16,11.38-26.87,15.35,4.9,25.96,14.64,51.67,26.87,51.67Z" fill="#F0F0F0" stroke-width="0px"></path><path class="b4662" d="m361,300v30c0,23.32-18.22,45.98-48.63,44.63-5.76,31.57-20.22,75.37-56.37,75.37s-50.61-43.79-56.37-75.37c-29.87,1.32-48.63-20.87-48.63-44.63v-30h-17.3l35,212h174.59l35-212h-17.29Z" fill="#F0F0F0" stroke-width="0px"></path><path class="b4662" d="m46,375v122c0,8.29,6.71,15,15,15h77.29l-34.62-209.73c-32.07,7.64-57.67,37.13-57.67,72.73Z" fill="#F0F0F0" stroke-width="0px"></path><path class="b4662" d="m408.32,302.27l-34.62,209.73h77.3c8.29,0,15-6.71,15-15v-122c0-35.91-25.79-65.13-57.68-72.73Z" fill="#F0F0F0" stroke-width="0px"></path><path class="b4662" d="m159.59,270c-15.04-22.23-23.59-48.17-23.59-75v-60c0-24.81,20.19-45,45-45,39.18,0,58.05-16.74,58.84-17.46,8.14-7.9,19.59-12.54,31.16-12.54,57.89,0,105,47.11,105,105v30c0,26.81-8.56,52.76-23.61,75h38.61c10.7,0,21.02,1.87,30.94,4.95-15.62-55.26-15.94-124.04-15.94-124.95C406,67.29,338.71,0,256,0S106,67.29,106,150c0,.91-.32,69.68-15.94,124.94,9.92-3.08,20.24-4.94,30.94-4.94h38.59Z" fill="#F0F0F0" stroke-width="0px"></path><path class="b4662" d="m255.98,315.04s0,0,0,0c0,0,.01,0,.02-.01,0,0,0,0,0,0,0,0-.01,0-.02.01Z" fill="#F0F0F0" stroke-width="0px"></path><path class="b4662" d="m181,300v30c0,8.28,6.72,15,15,15,26.45,0,44.39-18.73,59.98-29.96-17.9-13.94-35.93-30.04-59.98-30.04-8.28,0-15,6.72-15,15Z" fill="#F0F0F0" stroke-width="0px"></path><path class="b4662" d="m331,330v-30c0-8.28-6.72-15-15-15-24.41,0-42.55,16.69-60,30.03,15.91,11.45,33.83,29.97,60,29.97,8.28,0,15-6.72,15-15Z" fill="#F0F0F0" stroke-width="0px"></path><path class="b4662" d="m346,165c0-41.35-33.65-75-75-75-3.9,0-7.72,1.6-10.52,4.31-1.08,1.05-27.11,25.69-79.48,25.69-8.29,0-15,6.71-15,15v60c0,21.51,7.14,42.33,19.62,60,7.26.64,24.71-2.96,50.81,10.06,6.96,3.4,13.48,7.62,19.6,12.07,6.68-4.83,13.02-8.88,19.86-12.22,25.6-12.84,43.64-9.31,50.47-9.92,12.5-17.68,19.63-38.49,19.63-60v-30Z" fill="#F0F0F0" stroke-width="0px"></path>
    </symbol>

    <symbol id="sports" viewBox="0 0 512 512" >
        <path class="b6882" d="m102.64,331.2c19.14-42.27,33.84-93.14,32.08-123.04-11.71-.02-84.81.02-94.64,0,2.16,48.11,24.96,92.95,62.56,123.04Z" fill="#F0F0F0" stroke-width="0px"></path><path class="b6882" d="m133.44,192.16c-6.83-41.07-18.56-81.17-34.96-119.44-35.16,30.01-56.31,73.26-58.4,119.44,9.52-.04,82.01.03,93.36,0Z" fill="#F0F0F0" stroke-width="0px"></path><path class="b6882" d="m149.52,192.16h50.64s-.1-157.87-.08-159.92c-31.79,1.35-62.52,11.85-88.48,30.24,1.92,4.72,4,9.84,6.08,15.28,15.08,36.75,25.77,75.15,31.84,114.4Z" fill="#F0F0F0" stroke-width="0px"></path><path class="b6882" d="m267.12,192.16c6.62-46.93,24.23-90.43,40.16-127.68-26.48-19.65-58.25-30.89-91.2-32.24.06,1.83.08,159.92.08,159.92h50.96Z" fill="#F0F0F0" stroke-width="0px"></path><path class="b6882" d="m376.08,192.16c-2.05-45.04-22.22-87.33-55.92-117.28-2,4.72-4.24,10-6.56,15.76-14,32.56-24.2,66.63-30.4,101.52h92.88Z" fill="#F0F0F0" stroke-width="0px"></path><path class="b6882" d="m122.72,324.96c-.27.21-.57.4-.88.56.51.7.72-.11.88-.56Z" fill="#F0F0F0" stroke-width="0px"></path><path class="b6882" d="m465.09,362.37c-.86-.99-1.78-1.91-2.77-2.77-16.91-14.57-35.06-27.63-54.24-39.04v120.88c19.18-11.41,37.33-24.47,54.24-39.04,11.82-10.29,13.06-28.21,2.77-40.03Z" fill="#F0F0F0" stroke-width="0px"></path><path class="b6882" d="m118.72,342.64h0c-7.11,5.24-14.91,11.57-21.12,16.96-11.82,10.29-13.06,28.21-2.78,40.03.86.99,1.79,1.92,2.78,2.77,16.91,14.57,35.06,27.63,54.24,39.04-.04-8.26,0-120.88,0-120.88-11.45,6.73-22.5,14.1-33.12,22.08Z" fill="#F0F0F0" stroke-width="0px"></path><path class="b6882" d="m332,288.56c-54.82-14.69-115.08-3.25-164.16,23.12-.13,29.63,0,137.36,0,137.36.03.41-.03.81-.16,1.2,34.49,18.78,72.98,28.98,112.24,29.76,39.22-.77,77.69-10.95,112.16-29.68-.01-21.46-.06-130.74,0-138.64-19.06-10.02-39.22-17.77-60.08-23.12Zm26.88,66.16c-3.38,8.36-11.8,4.22-17.92,2.08l1.92,7.68c.98,4.33-1.74,8.63-6.07,9.6-4.21.95-8.42-1.6-9.53-5.76l-4.08-16.48c-11.44-2.59-23.08-4.14-34.8-4.64l4.24,17.28c1.07,4.28-1.54,8.62-5.83,9.69s-8.62-1.54-9.69-5.83c0,0,0-.01,0-.02l-5.2-21.2c-11.01.39-21.95,1.76-32.72,4.08l3.28,13.28c1.04,4.31-1.62,8.65-5.93,9.69-4.28,1.03-8.59-1.58-9.67-5.85l-3.28-13.2c-4.32,1.2-8.56,2.64-12.8,4.24-4.15,1.47-8.71-.7-10.18-4.85-1.45-4.08.62-8.56,4.66-10.11,4.8-1.76,9.68-3.36,14.56-4.72l-3.28-13.2c-2.24-7.35,7.06-6.9,11.84-8.88h0c1.84,1.13,3.16,2.94,3.68,5.04l3.28,13.12c10.76-2.24,21.67-3.69,32.64-4.32l-1.2-4.96c-1.1-4.28,1.47-8.64,5.74-9.74,4.28-1.1,8.64,1.47,9.74,5.74.01.05.03.1.04.16.12.44,2.25,9.18,2.32,9.28,11.51-.76,23.07.16,34.32,2.72l-2-8.16c-1.03-4.29,1.62-8.61,5.92-9.63,4.25-1.02,8.52,1.56,9.6,5.79l4,16c7.95,3.4,25.66,3.68,22.4,16.08Z" fill="#F0F0F0" stroke-width="0px"></path><path class="b6882" d="m216.24,208.16l.4,71.04c17.7-5.18,35.97-8.19,54.4-8.96-3.8-20.47-5.59-41.26-5.36-62.08h-49.44Z" fill="#F0F0F0" stroke-width="0px"></path><path class="b6882" d="m281.68,208.16c-.24,20.81,1.66,41.58,5.68,62,17.44.61,34.76,3.25,51.6,7.84,5.28,1.36,10.56,2.96,15.68,4.64,12.96-22.77,20.28-48.3,21.36-74.48-9.38.03-83.06-.02-94.32,0Z" fill="#F0F0F0" stroke-width="0px"></path><path class="b6882" d="m122.72,324.88c24.13-16.86,50.35-30.52,78-40.64l-.48-76.08h-49.52c.72,31.2-8.56,69.6-28,116.72Z" fill="#F0F0F0" stroke-width="0px"></path><path class="b6882" d="m288.4,347.12h-.08s.1.16.08,0Z" fill="#F0F0F0" stroke-width="0px"></path>
    </symbol>

    <symbol id="vip" viewBox="0 0 512 512">
        <path class="b7326" d="m492.25,81.96c-11.96-4.96-25.73-2.22-34.88,6.93l-79.17,79.19-99.56-99.56c-12.49-12.5-32.75-12.51-45.25-.01,0,0,0,0-.01.01l-99.56,99.56L54.63,88.9c-12.49-12.5-32.75-12.51-45.25-.01C3.37,94.89,0,103.04,0,111.53v240.47c.08,64.77,52.57,117.25,117.33,117.33h277.33c64.77-.08,117.25-52.57,117.33-117.33V111.53c0-12.94-7.8-24.61-19.75-29.57Zm-44.25,270.04c0,29.46-23.88,53.33-53.33,53.33H117.33c-29.46,0-53.33-23.88-53.33-53.33v-163.22l47.19,47.19c12.5,12.49,32.75,12.49,45.25,0l99.56-99.56,99.56,99.56c12.5,12.49,32.75,12.49,45.25,0l47.19-47.19v163.22Z" fill="#F0F0F0" stroke-width="0px"></path>
    </symbol>

    <symbol id="promotion" viewBox="0 0 24 24" Width="24" height="24">
        <path d="m99.46,242l-50.35,29.07c-15.27,8.82-26.22,23.14-30.82,40.31-4.61,17.18-2.29,35.06,6.53,50.32,12.28,21.26,34.63,33.17,57.58,33.17,11.25,0,22.64-2.86,33.06-8.88h0l50.42-29.11-66.42-114.89Z" fill="#F0F0F0" stroke-width="0px"></path><path class="b5883" d="m378.11,307.54L248.38,82.85c-2.7-4.69-7.14-7.26-12.51-7.26-.1,0-.21,0-.31,0-5.51.1-9.97,2.84-12.55,7.71-4.56,8.6-8.96,17.79-13.61,27.51-19.58,40.89-41.59,86.86-88.49,118.3l66.84,115.64c50.63-24.86,101.43-20.94,146.61-17.45,10.77.83,20.92,1.61,30.67,1.97,5.52.21,10.11-2.28,12.95-7.01,2.85-4.73,2.89-9.96.14-14.73h0Z" fill="#F0F0F0" stroke-width="0px"></path><path class="b5883" d="m362.8,166.59c-4.83-8.37-12.68-14.37-22.1-16.89h0c-8.06-2.16-16.39-1.53-23.87,1.71l36.13,62.57c14.64-10.84,19.16-31.24,9.84-47.39Z" fill="#F0F0F0" stroke-width="0px"></path><path class="b5883" d="m220.66,451.91l-42.34-73.33-39.52,22.82,42.33,73.33c6.3,10.9,20.28,14.64,31.18,8.35,5.24-3.03,9-7.95,10.59-13.86,1.58-5.92.79-12.06-2.24-17.31h0Z" fill="#F0F0F0" stroke-width="0px"></path><path class="b5883" d="m483.48,201.44h-51.61c-6.9,0-12.5,5.6-12.5,12.51s5.6,12.5,12.5,12.5h51.61c6.94,0,12.53-5.6,12.53-12.51s-5.59-12.5-12.53-12.5Z" fill="#F0F0F0" stroke-width="0px"></path><path class="b5883" d="m388.39,27.55c-5.98-3.45-13.62-1.4-17.07,4.58l-25.83,44.71h0c-3.45,5.98-1.4,13.62,4.58,17.07,1.96,1.14,4.11,1.68,6.23,1.68,4.32,0,8.53-2.24,10.84-6.25l25.83-44.71c3.45-5.98,1.4-13.62-4.58-17.08Z" fill="#F0F0F0" stroke-width="0px"></path><path class="b5883" d="m466.13,106.93h0c-3.47-5.98-11.09-8.03-17.07-4.58l-45.81,26.44c-5.98,3.46-8.03,11.1-4.58,17.08,2.32,4.01,6.52,6.25,10.84,6.25,2.12,0,4.27-.55,6.24-1.68l45.79-26.44c5.98-3.45,8.05-11.1,4.58-17.08Z" fill="#F0F0F0" stroke-width="0px"></path>
    </symbol>

    <symbol id="loyalty" viewBox="0 0 24 24">
        <path class="b5217" d="m47.05,302H15.05c-8.29,0-15,6.71-15,15v180c0,8.29,6.71,15,15,15h32c24.81,0,45-20.19,45-45v-120c0-24.81-20.18-45-45-45Z" fill="#F0F0F0" stroke-width="0px"></path><path class="b5217" d="m507.55,331.1c-1.8-3-4.2-5.4-6.9-7.5-11.05-9.66-29.65-8.75-40.5,3l-68.1,78.6-2.1,2.4c-8.4,9.3-20.4,14.4-33,14.4h-116.4c-8.4,0-15-6.6-15-15s6.6-15,15-15h91.5c16.5,0,30-13.5,30-30v-.3c-.3-16.5-13.5-29.7-30-29.7h-54.3c-9,0-18.64-3.3-26.4-9.9-36.6-32.1-90-34.2-129.3-6.9v184.5c29.7,8.1,60.3,12.3,91.2,12.3h133.8c33,0,64.2-15.6,84-42l72-96c10.5-13.79,11.29-32.7,4.5-42.9Z" fill="#F0F0F0" stroke-width="0px"></path><path class="b5217" d="m214.6,251.56c12.28,10.36,24.98,21.08,38.47,32.78,2.82,2.44,6.32,3.66,9.82,3.66s7.01-1.22,9.82-3.66c13.49-11.69,26.19-22.41,38.47-32.77,21.34-18.01,39.77-33.57,55.77-48.66,31.05-29.3,59.79-62.55,59.79-107.11,0-25.33-8.7-49.05-24.48-66.79C385.63,10.3,362.56,0,337.32,0c-28.17,0-52.59,13.32-70.62,38.52-1.35,1.89-2.62,3.78-3.8,5.65-1.18-1.87-2.45-3.76-3.8-5.65C241.07,13.32,216.65,0,188.48,0c-25.24,0-48.3,10.3-64.94,28.99-15.79,17.74-24.48,41.46-24.48,66.79,0,27.52,10.68,52.92,33.61,79.93,20.01,23.57,48.71,47.79,81.94,75.84Z" fill="#F0F0F0" stroke-width="0px"></path>
    </symbol>

    <symbol id="telegram" viewBox="0 0 24 24">
        <path class="b6993" d="m12,2C6.48,2,2,6.48,2,12s4.48,10,10,10,10-4.48,10-10S17.52,2,12,2Zm3.5,13.99c-.14.75-.42,1-.68,1.03-.58.05-1.02-.38-1.58-.75-.88-.58-1.38-.94-2.23-1.5-.99-.65-.35-1.01.22-1.59.15-.15,2.71-2.48,2.76-2.69,0-.03.01-.12-.05-.18-.06-.05-.14-.03-.21-.02-.09.02-1.49.95-4.22,2.79-.4.27-.76.41-1.08.4-.36,0-1.04-.2-1.55-.37-.63-.2-1.12-.31-1.08-.66.02-.18.27-.36.74-.55,2.92-1.27,4.86-2.11,5.83-2.51,2.78-1.16,3.35-1.36,3.73-1.36.08,0,.27.02.39.12.08.07.13.17.14.27.02.13.03.26.02.39-.15,1.58-.8,5.42-1.13,7.19Z" fill="#B8B8B8" stroke-width="0px"></path>
    </symbol>

    <symbol id="community" viewBox="0 0 24 24">
        <path class="b7104" d="m117.33,229.33c15.41.07,30.05-6,40.84-16.61,2.59-2.5,4.97-5.26,7.09-8.26-10.17-16.71-15.56-35.9-15.57-55.47-.01-8.63,1.06-17.24,3.2-25.6-10.15-7.62-22.51-11.73-35.2-11.73-15.35,0-29.33,5.91-39.78,15.56-11.82,10.73-19.24,26.22-19.24,43.44,0,32.4,26.27,58.67,58.67,58.67Z" fill="#F0F0F0" stroke-width="0px"></path><path class="b7104" d="m394.67,229.33s.06,0,.09,0c15.34-.01,29.29-5.92,39.74-15.57,11.8-10.73,19.21-26.22,19.2-43.43,0-12.69-4.12-25.04-11.73-35.2-19.44-25.92-56.21-31.17-82.13-11.73,0,.02.01.05.02.07-.12.09-.25.17-.37.26,2.14,8.36,3.21,16.97,3.2,25.6-.02,19.57-5.4,38.75-15.57,55.47,10.9,15.46,28.66,24.62,47.57,24.53Z" fill="#F0F0F0" stroke-width="0px"></path><path class="b7104" d="m256,229.33c20.88,0,39.88-8,54.13-21.1,16.11-14.63,26.23-35.75,26.23-59.23,0-44.18-35.82-80-80-80-20.88,0-39.88,8-54.13,21.1-16.11,14.63-26.23,35.75-26.23,59.23,0,44.18,35.82,80,80,80Z" fill="#F0F0F0" stroke-width="0px"></path><path class="b7104" d="m367.99,326.66c-7.33-49.79-49.94-86.76-100.27-87h-22.7c-26.83.12-51.46,10.69-69.73,28.07-16.19,15.26-27.44,35.84-30.89,59.26l-10.88,76.07c-.7,4.99.98,10.01,4.54,13.57,4.27,4.27,30.44,26.03,117.97,26.03s112.84-21.02,117.76-25.82c.22-.2.41-.39.56-.54,3.57-3.56,5.25-8.58,4.54-13.57l-10.92-76.07Z" fill="#F0F0F0" stroke-width="0px"></path><path class="b7104" d="m161.63,251.4c-8.83-5.11-18.48-8.63-28.52-10.4-28.32-5.01-55.87,4.24-75.27,22.6-13.31,12.46-22.85,29.17-26.27,48.51l-4.69,26.45c-.73,4.19.27,8.5,2.77,11.95,3.2,4.69,22.4,27.73,85.76,28.16l.05-.34c.1,0,.2,0,.3,0l7.89-54.61c3.94-27.76,17.36-53.31,37.97-72.32Z" fill="#F0F0F0" stroke-width="0px"></path><path class="b7104" d="m485.47,338.23l-4.69-26.45c-1.78-10.04-5.3-19.69-10.4-28.52-24.15-41.74-77.56-56.01-119.31-31.86.03.03.06.06.09.09-.15.08-.3.16-.45.24,20.62,19.01,34.03,44.56,37.97,72.32l7.89,54.61c50.55-.34,72.99-15.07,81.62-23.4,2.4-2.26,3.81-4.09,4.49-5.09,2.5-3.44,3.5-7.75,2.77-11.95Z" fill="#F0F0F0" stroke-width="0px"></path>
    </symbol>

    <symbol id="crypto" viewBox="0 0 24 24">
        <path class="b3663" d="m256,0C114.61,0,0,114.61,0,256s114.61,256,256,256,256-114.61,256-256S397.38,0,256,0Zm78.34,354.5c-11.31,8.62-26.51,13.95-45.58,16.01v35.5h-25v-34.52h-19.33v34.52h-25v-34.52h-64.05v-31.96l23.54-4.99v-152.93l-23.54-4.99v-32.11h64.05v-38.5h25v38.5h13.68c1.91,0,3.79.02,5.65.07v-38.58h25v40.65h-1.62c15.12,2.44,27.73,6.97,37.84,13.6,16.01,10.5,24.01,26.14,24.01,46.92,0,10.7-2.55,20.29-7.64,28.76-5.09,8.47-12.94,14.89-23.54,19.25,9.05,1.97,16.42,5.32,22.14,10.05,5.72,4.73,9.93,10.45,12.63,17.15,2.7,6.71,4.05,13.96,4.05,21.75v.02c0,22.24-7.43,39.02-22.29,50.35Z" fill="#F0F0F0" stroke-width="0px"></path><path class="b3663" d="m255.75,238.67c12.89,0,22.53-2.05,28.92-6.16,6.39-4.11,9.59-10.47,9.59-19.1,0-9.46-2.99-16.35-8.96-20.66-5.97-4.31-15.04-6.47-27.2-6.47h-24.47v52.38h22.14-.02Z" fill="#F0F0F0" stroke-width="0px"></path><path class="b3663" d="m289.43,278.01h.01c-4.36-2.12-10.08-3.19-17.15-3.19h-38.66v55.03h36.01c10.81,0,18.94-2.13,24.4-6.39,5.46-4.26,8.18-10.76,8.18-19.49,0-6.55-1.04-11.98-3.12-16.29-2.08-4.31-5.3-7.53-9.67-9.67Z" fill="#F0F0F0" stroke-width="0px"></path>
    </symbol>

    <symbol id="help" viewBox="0 0 24 24">
        <path class="b4551" d="m215.94,0C96.72,0,0,96.59,0,215.81s96.71,216.04,215.93,216.04,215.91-96.71,215.91-216.04C431.85,96.59,335.21,0,215.94,0Zm15.39,335.96c-5.02,4.46-10.83,6.71-17.41,6.71s-12.75-2.2-17.83-6.62c-5.08-4.41-7.62-10.58-7.62-18.5,0-7.03,2.46-12.95,7.37-17.74,4.91-4.8,10.93-7.19,18.08-7.19s12.95,2.4,17.75,7.19c4.8,4.8,7.2,10.71,7.2,17.74,0,7.81-2.52,13.95-7.54,18.41Zm62.53-155.03c-3.85,7.15-8.43,13.31-13.74,18.5-5.29,5.19-14.81,13.92-28.55,26.2-3.79,3.46-6.84,6.5-9.12,9.12-2.28,2.63-3.99,5.02-5.1,7.2-1.12,2.18-1.98,4.36-2.59,6.53-.61,2.17-1.53,6-2.77,11.47-2.11,11.61-8.75,17.41-19.92,17.41-5.8,0-10.68-1.89-14.66-5.69-3.96-3.8-5.93-9.43-5.93-16.91,0-9.37,1.46-17.49,4.36-24.36,2.89-6.87,6.75-12.89,11.54-18.09,4.8-5.19,11.27-11.36,19.43-18.5,7.15-6.25,12.31-10.97,15.48-14.14,3.19-3.19,5.86-6.73,8.03-10.63,2.19-3.91,3.26-8.15,3.26-12.72,0-8.93-3.31-16.46-9.96-22.6-6.64-6.14-15.21-9.21-25.7-9.21-12.28,0-21.32,3.1-27.12,9.29-5.8,6.19-10.7,15.31-14.73,27.37-3.8,12.62-11.01,18.92-21.6,18.92-6.25,0-11.53-2.2-15.83-6.61-4.29-4.41-6.44-9.18-6.44-14.31,0-10.6,3.41-21.35,10.21-32.23,6.81-10.88,16.74-19.9,29.81-27.04,13.05-7.15,28.3-10.72,45.7-10.72,16.18,0,30.47,2.99,42.85,8.97,12.39,5.97,21.96,14.09,28.72,24.36,6.75,10.27,10.13,21.43,10.13,33.48.02,9.47-1.91,17.79-5.76,24.93Z" fill="#F0F0F0" stroke-width="0px"></path>
    </symbol>

    <symbol id="blog" viewBox="0 0 24 24">
        <path class="b3552" d="m384,112c0-12.74-5.06-24.94-14.06-33.94-8.99-9.01-21.2-14.06-33.94-14.06H80c-12.74,0-24.94,5.06-33.94,14.06-9.01,8.99-14.06,21.2-14.06,33.94v32h352v-32Z" fill="#F0F0F0" stroke-width="0px"></path><path class="b3552" d="m285.23,408.59c-15.33,5.44-32.4,1.57-43.9-9.92-11.49-11.5-15.36-28.58-9.92-43.9l19.26-54.29c1.7-4.8,4.45-9.15,8.03-12.74l111.74-111.74H32v224c0,12.74,5.06,24.94,14.06,33.94,8.99,9.01,21.2,14.06,33.94,14.06h256c12.74,0,24.94-5.06,33.94-14.06,9.01-8.99,14.06-21.2,14.06-33.94v-50.45s-39.68,38.08-44.48,39.78l-54.29,19.26ZM112,208h146.7c8.83,0,16,7.17,16,16s-7.17,16-16,16H112c-8.83,0-16-7.17-16-16s7.17-16,16-16Zm50.7,160h-50.7c-8.83,0-16-7.17-16-16s7.17-16,16-16h50.7c8.83,0,16,7.17,16,16s-7.17,16-16,16Zm32-64h-82.7c-8.83,0-16-7.17-16-16s7.17-16,16-16h82.7c8.83,0,16,7.17,16,16s-7.17,16-16,16Z" fill="#F0F0F0" stroke-width="0px"></path><path class="b3552" d="m473.31,189.31l-22.62-22.62c-7.09-7.09-18.59-7.09-25.68,0l-143.66,143.68c-.24.22-.4.5-.51.8l-19.26,54.3c-1.31,3.7-.38,7.81,2.38,10.58,2.77,2.77,6.88,3.7,10.58,2.38l54.3-19.26h0c.3-.11.58-.27.8-.51l143.68-143.66c7.09-7.09,7.09-18.59,0-25.68Z" fill="#F0F0F0" stroke-width="0px"></path>
    </symbol>

    <symbol id="football" viewBox="0 0 640 640">
        <path class="b4329" d="m319.54,390.63h0c32.45,0,59.84-22,68.08-51.88h-136.17c8.24,29.87,35.63,51.88,68.09,51.88Z" fill="#F0F0F0" stroke-width="0px"></path><path class="b4329" d="m319.54,249.37c-32.46,0-59.85,22-68.09,51.88h136.17c-8.24-29.87-35.63-51.88-68.08-51.88Z" fill="#F0F0F0" stroke-width="0px"></path><rect class="b4329" x="223.9" width="191.28" height="99.77" fill="#F0F0F0" stroke-width="0px"></rect><path class="b4329" d="m426.05,338.75h0c-8.91,50.72-53.27,89.38-106.5,89.38s-97.6-38.66-106.5-89.38H63v245c0,31.02,25.23,56.25,56.25,56.25h67.15v-118.75c0-10.36,8.4-18.75,18.75-18.75h228.78c10.36,0,18.75,8.39,18.75,18.75v118.75h67.16c31.02,0,56.25-25.23,56.25-56.25v-245h-150.04Z" fill="#F0F0F0" stroke-width="0px"></path><path class="b4329" d="m319.54,211.87c53.23,0,97.59,38.66,106.5,89.38h150.04V56.25c0-31.02-25.23-56.25-56.25-56.25h-67.15v118.52c0,10.36-8.39,18.75-18.75,18.75h-228.78c-10.35,0-18.75-8.39-18.75-18.75V0h-67.15c-31.02,0-56.25,25.23-56.25,56.25v245h150.04c8.9-50.72,53.27-89.38,106.5-89.38Z" fill="#F0F0F0" stroke-width="0px"></path><rect class="b4329" x="223.9" y="540" width="191.28" height="100" fill="#F0F0F0" stroke-width="0px"></rect>
    </symbol>

    <symbol id="tennis" viewBox="0 0 40.93 40.93">
        <path class="b7215" d="m18.55.08c-4.58.43-9.05,2.4-12.56,5.91C2.47,9.5.5,13.97.08,18.55c5.03.58,10.37,3.15,14.76,7.54,4.39,4.39,6.96,9.74,7.54,14.76,4.59-.43,9.05-2.4,12.57-5.91,3.51-3.51,5.48-7.98,5.9-12.57-5.02-.58-10.37-3.15-14.76-7.54C21.71,10.46,19.13,5.11,18.55.08Z" fill="#F0F0F0" stroke-width="0px"></path><path class="b7215" d="m40.93,19.85c-.15-5.03-2.14-10.02-5.98-13.87C31.11,2.14,26.12.16,21.09,0c.57,4.4,2.9,9.12,6.82,13.04s8.63,6.25,13.03,6.81Z" fill="#F0F0F0" stroke-width="0px"></path><path class="b7215" d="m0,21.09c.15,5.03,2.14,10.02,5.98,13.86,3.84,3.84,8.83,5.83,13.86,5.98-.57-4.39-2.9-9.11-6.81-13.03C9.12,23.99,4.4,21.66,0,21.09Z" fill="#F0F0F0" stroke-width="0px"></path>
    </symbol>

    <symbol id="basketball" viewBox="0 0 488.84 488.84">
        <path class="b3330" d="m264.32,39.49c5.53-7.33,4.64-22.87,3.85-36.58-.03-.59-.06-1.17-.1-1.76-7.75-.74-15.6-1.15-23.54-1.15-30.42,0-59.54,5.6-86.41,15.77,19.17,9.21,48.84,25.07,81.81,48.49,11.25-9.68,19.74-18.62,24.37-24.77Z" fill="#F0F0F0" stroke-width="0px"></path><path class="b3330" d="m388.16,178.96c-12.05,1.36-22.21,3.34-30.9,6.11,41.54,72.52,57.73,164.15,61.7,230.52,41.15-41.93,67.28-98.61,69.75-161.39-28.35-34.85-65.92-79.17-100.55-75.24Z" fill="#F0F0F0" stroke-width="0px"></path><path class="b3330" d="m141.23,116.36c29.18-6.07,56.6-20.76,78.47-36.27-45.61-31.41-83.65-47.71-91.21-50.82-47.32,25.58-85.18,66.33-107.21,115.72,28.63-11.41,59.64-17.21,90.1-22.87,9.85-1.83,20.04-3.72,29.86-5.76Z" fill="#F0F0F0" stroke-width="0px"></path><path class="b3330" d="m310.17,123.46c2.6,2.62,5.2,5.28,7.78,7.99,9.52,9.99,18.16,20.93,26.08,32.49,11.54-4.36,25.12-7.45,41.38-9.28,38.31-4.33,72.37,26.01,101.6,59.42-6.27-50.65-27.99-96.48-60.35-132.63-17.67,2.13-37.36,5.74-57.43,11.73-13.17,3.93-34.14,14.62-59.06,30.28Z" fill="#F0F0F0" stroke-width="0px"></path><path class="b3330" d="m278.01,249.69c10.03-33.96,21.64-58.43,44.14-74.32-6.75-9.69-14.02-18.79-21.89-27.05-3.64-3.82-7.32-7.52-11.02-11.15-90.26,61.44-213.91,174.3-225.15,272.09,37.53,41.06,88.89,69.22,146.71,77.21,21.05-41.92,40.87-127.12,52.65-177.8,5.66-24.34,10.54-45.36,14.57-58.98Z" fill="#F0F0F0" stroke-width="0px"></path><path class="b3330" d="m175.67,195.84c31.47-29,64.71-55.01,95.11-75.91-10.13-8.97-20.3-17.23-30.28-24.81-25.25,18.98-58.31,37.67-94.29,45.16-10.08,2.1-20.4,4.01-30.37,5.87-38.44,7.14-75.34,14.05-106.37,31.36C3.43,198.79.12,221.21.12,244.42c0,51.92,16.24,100.02,43.84,139.6,17.88-70.8,79.21-139.81,131.71-188.18Z" fill="#F0F0F0" stroke-width="0px"></path><path class="b3330" d="m291.83,105.97c29.08-18.54,54.15-31.36,70.41-36.21,14.61-4.36,28.93-7.54,42.5-9.86-31.35-27.24-69.68-46.66-111.99-55.13.94,17.07,1.35,35.81-8.92,49.43-4.88,6.47-13.13,15.33-23.87,24.96,10.52,8.19,21.21,17.11,31.87,26.81Z" fill="#F0F0F0" stroke-width="0px"></path><path class="b3330" d="m301.45,256.61c-3.82,12.93-8.63,33.62-14.2,57.59-16.44,70.76-32.18,134.07-50.55,174.44,2.61.08,5.22.2,7.85.2,56.96,0,109.33-19.54,150.89-52.21-1.64-69.46-18.29-167.71-60.24-240.64-16.27,12.09-25.02,31.11-33.74,60.62Z" fill="#F0F0F0" stroke-width="0px"></path>
    </symbol>

    <symbol id="bets" viewBox="0 0 512 512">
        <path class="b5550" d="m384,0H128c-35.35,0-64,28.65-64,64v445.87l78.29-53.55,56.98,38.95,56.87-38.95,56.87,38.95,56.83-38.93,78.14,53.53V64c0-35.35-28.65-64-64-64Zm-64,298.67h-170.67v-42.67h170.67v42.67Zm42.67-106.67h-213.33v-42.67h213.33v42.67Z" fill="#F0F0F0" stroke-width="0px"></path>
    </symbol>



    <symbol id="global" viewBox="0 0 24 24" fill="none" stroke="currentColor" stroke-width="2" stroke-linecap="round" stroke-linejoin="round">
        <circle cx="12" cy="12" r="10"></circle>
        <line x1="2" y1="12" x2="22" y2="12"></line><path d="M12 2a15.3 15.3 0 0 1 4 10 15.3 15.3 0 0 1-4 10 15.3 15.3 0 0 1-4-10 15.3 15.3 0 0 1 4-10z"></path>
    </symbol>

    <symbol id="arrow_down" viewBox="0 0 24 24" fill="none" stroke="#fff" stroke-width="2" stroke-linecap="round" stroke-linejoin="round">
        <polyline points="6 9 12 15 18 9"></polyline>
    </symbol>

</defs>
</svg>