<svg xmlns="http://www.w3.org/2000/svg" width="160" height="36" viewBox="0 0 160 36" fill="none"><g clip-path="url(#clip0_2006_2851)"><mask id="mask0_2006_2851" style="mask-type:luminance" maskUnits="userSpaceOnUse" x="0" y="0" width="32" height="36"><path d="M31.6419 0.0175781H0.000183105V36.0002H31.6419V0.0175781Z" fill="white"></path></mask><g mask="url(#mask0_2006_2851)"><mask id="mask1_2006_2851" style="mask-type:luminance" maskUnits="userSpaceOnUse" x="0" y="0" width="31" height="36"><path d="M30.8249 0.0126953H0.00012207V35.1022H30.8249V0.0126953Z" fill="white"></path></mask><g mask="url(#mask1_2006_2851)"><path d="M12.2155 10.6557C12.0363 10.7185 11.8703 10.7944 11.7174 10.8963L14.3715 2.86689L14.5244 2.39648H14.9591L14.9089 2.54823L12.2548 10.6296L12.2155 10.6557Z" fill="#FECB46"></path><path d="M18.6749 12.5829L19.2625 11.9997V11.4426C19.2625 11.4426 19.2888 11.3668 19.3128 11.3277L19.9769 10.6687V9.79297L18.6749 11.0871V12.585V12.5829Z" fill="#FECB46"></path><path d="M16.1474 12.4184C15.8154 11.4538 15.4834 10.4783 15.1513 9.51364C15.1382 9.47462 15.1251 9.42476 15.1011 9.38574V9.44861C14.9219 9.94286 14.7428 10.4501 14.5768 10.9465C14.5637 10.9725 14.5506 10.9964 14.5506 11.0224C14.5506 11.0484 14.5506 11.0723 14.5768 11.0983C14.8455 11.3259 15.0749 11.6185 15.2147 11.935C15.3676 12.2515 15.444 12.607 15.444 12.9625C15.444 13.3181 15.3676 13.6736 15.2147 13.9901C15.0618 14.3066 14.8455 14.5992 14.5768 14.8268C14.3846 14.9786 14.1945 15.1303 13.9892 15.2842L13.3644 15.7546H13.454C14.3212 16.0213 15.1142 16.5025 15.752 17.1507C16.3528 17.7598 16.7853 18.4817 17.054 19.2946C17.1304 19.5482 17.1938 19.8148 17.22 20.0815C17.22 20.1834 17.1938 20.2722 17.1435 20.3481C17.0933 20.411 17.0278 20.476 16.9513 20.4999C16.8748 20.5259 16.7853 20.5259 16.7088 20.4999C16.6193 20.4738 16.5428 20.437 16.4795 20.372C16.4161 20.3091 16.3768 20.2202 16.3637 20.1313C16.237 19.3704 15.9159 18.6464 15.42 18.0373L15.3567 17.9614H14.0547L11.8965 20.1443H12.6239C12.6239 20.1443 12.7004 20.1704 12.7397 20.1942L14.1312 21.4883H15.4593C16.2632 21.4125 17.0037 21.044 17.5389 20.4478C18.0741 19.8517 18.3821 19.0908 18.3821 18.2909V16.4635H18.1899C17.9343 16.4245 17.7049 16.3486 17.4887 16.2229C17.1435 16.0321 16.8377 15.7655 16.6324 15.423C16.4161 15.0935 16.3003 14.6989 16.2872 14.3066V12.8867C16.2872 12.7219 16.261 12.5702 16.2108 12.4163L16.1715 12.3903L16.1452 12.4163L16.1474 12.4184Z" fill="#FECB46"></path><path d="M11.1058 16.4139L12.2417 15.5381L12.7135 15.1696L12.8162 15.0938H11.4881L10.99 15.4493H8.06722C7.9012 15.8416 7.79853 16.2492 7.74829 16.6675H10.2757C10.3019 16.6675 10.315 16.6936 10.3259 16.7066C10.339 16.7196 10.3522 16.7456 10.3653 16.7564V19.3317H10.7235L13.4169 16.6936C13.1351 16.5917 12.8293 16.5158 12.5366 16.4789H12.4339C12.3946 16.4789 12.3706 16.505 12.3444 16.5288C12.0888 16.7326 11.8201 16.9212 11.5536 17.1119C11.4903 17.1618 11.4138 17.1878 11.3373 17.2138C11.2478 17.2268 11.1451 17.2138 11.0687 17.1748C10.9922 17.1249 10.9288 17.0469 10.8895 16.9602C10.8502 16.8713 10.8502 16.7694 10.8764 16.6806C10.9026 16.5917 10.966 16.5028 11.0424 16.4529L11.0818 16.4139H11.108H11.1058Z" fill="#FECB46"></path><path d="M9.22925 13.851C9.12658 13.9398 9.05012 14.0287 8.96056 14.1176L8.80765 14.3084H10.7999L12.5605 13.0532V12.9774C12.5605 12.8625 12.6108 12.7497 12.6872 12.6739C12.7637 12.598 12.8795 12.546 12.9931 12.546C13.1066 12.546 13.2224 12.5958 13.2989 12.6739C13.3753 12.7497 13.4256 12.8646 13.4256 12.9774C13.4256 13.0901 13.3753 13.205 13.2989 13.2808C13.2224 13.3567 13.1066 13.4087 12.9931 13.4087C12.9035 13.4087 12.8139 13.3827 12.7375 13.3329L10.9768 14.601H8.53896L8.42319 14.7658C8.34673 14.8806 8.28338 15.0064 8.22003 15.1343H10.7977L11.1297 14.8937L11.2826 14.7788H13.2355C13.478 14.601 13.7336 14.4102 13.9629 14.2216C14.2054 14.0439 14.3977 13.8033 14.4981 13.5236C14.5986 13.244 14.6248 12.9405 14.5484 12.6479C14.4981 12.3812 14.3693 12.1406 14.1901 11.9238C14.011 11.7201 13.7816 11.5553 13.5261 11.4664C13.2705 11.3775 12.9909 11.3385 12.7222 11.3906C12.4535 11.4296 12.1979 11.5423 11.9817 11.707L10.0156 13.192C9.73385 13.4066 9.44114 13.6103 9.13532 13.838H9.21177L9.22488 13.851H9.22925Z" fill="#FECB46"></path><path d="M17.3594 8.41019C17.1805 8.66382 17.078 8.9673 17.0911 9.28596V12.9647L17.5884 12.4704V8.14355C17.4989 8.21943 17.4095 8.32131 17.3463 8.41019H17.3594Z" fill="#FECB46"></path><path d="M18.6858 16.5027V18.3171C18.6858 18.9891 18.4935 19.6481 18.1375 20.2204C17.7792 20.7905 17.2571 21.2479 16.6302 21.5276H16.8989C17.753 21.5276 18.5831 21.185 19.1838 20.5889C19.7845 19.9928 20.1275 19.169 20.1275 18.3171V16.3379C20.0882 16.223 20.051 16.1103 20.0248 15.9824C19.6557 16.2751 19.2078 16.4398 18.7491 16.4637L18.6858 16.5027Z" fill="#FECB46"></path><path d="M7.72197 17.1765V19.3594H10.044V17.0117H7.73289V17.1635L7.71979 17.1765H7.72197Z" fill="#FECB46"></path><path d="M15.0116 32.2968H15.0618L15.1645 32.3597V23.6821H12.9057L11.6038 22.6416H8.94971C9.2315 22.9711 9.53732 23.2637 9.88247 23.5174C10.7759 24.1764 11.8485 24.5319 12.9582 24.5319C13.0215 24.5189 13.098 24.5189 13.1613 24.5319C13.2509 24.5709 13.3273 24.6468 13.3776 24.7227C13.4278 24.8115 13.4409 24.9134 13.4169 25.0023C13.3907 25.1042 13.3405 25.18 13.264 25.2429C13.1875 25.3058 13.0849 25.3448 12.9953 25.3448C12.4841 25.3448 11.9752 25.2559 11.4902 25.1172L11.1844 25.0283L12.6917 26.5262H14.4654C14.4917 26.5262 14.5048 26.5522 14.5157 26.5652C14.5288 26.5783 14.5419 26.6043 14.555 26.6151V31.9435L15.0268 32.2469H15.0137V32.2968H15.0116Z" fill="#FECB46"></path><path d="M14.0024 31.7136L14.105 31.7635L14.1946 31.8133V26.8665H12.5737C12.5737 26.8665 12.4973 26.8405 12.4579 26.8166L11.0533 25.4336V25.9669L12.305 27.1851H13.7337C13.7599 27.1851 13.773 27.2112 13.7839 27.2242C13.797 27.2372 13.8101 27.2632 13.8232 27.274V31.5619L13.9892 31.6637V31.7028L14.0024 31.7158V31.7136Z" fill="#FECB46"></path><path d="M9.80385 5.4924L2.74371 9.52661L8.92134 12.9387C9.0109 12.685 9.12449 12.3815 9.20313 12.1388C9.67497 10.8078 10.1359 9.50059 10.6077 8.14357C10.6208 8.10455 10.6339 8.08071 10.6339 8.04169C10.6339 8.00267 10.6339 7.97882 10.6077 7.9398L9.99608 6.12539C9.91963 5.92162 9.85628 5.72002 9.79293 5.52925V5.49023H9.80604L9.80385 5.4924Z" fill="#8C6A26"></path><path d="M28.5922 24.9656V10.6172L24.5838 12.837V15.6659C24.5575 16.1732 24.3675 16.6544 24.0355 17.0489C24.0092 17.088 23.9852 17.1378 23.9852 17.1877V19.2926C23.9852 19.8258 23.9219 20.3461 23.7821 20.8534C23.5658 21.6663 23.1813 22.4271 22.6593 23.0861C22.135 23.7451 21.4731 24.2784 20.7195 24.6708C20.6932 24.6708 20.6801 24.6968 20.6692 24.7228C20.6692 24.7488 20.643 24.7618 20.643 24.7857V29.5677L28.5944 25.0003V24.9613L28.5922 24.9656Z" fill="#8C6A26"></path><path d="M12.0997 27.5148L11.0271 26.4482V30.012L11.9839 30.5583L13.489 31.4341V27.5516H12.2133C12.2133 27.5516 12.1368 27.5256 12.0975 27.5018V27.5148H12.0997Z" fill="#FECB46"></path><path d="M10.1862 27.6799V24.7621C10.1862 24.7621 10.1862 24.7123 10.16 24.6863C10.1468 24.6603 10.1206 24.6472 10.0966 24.6364C9.35608 24.2549 8.70511 23.7238 8.18303 23.0626C7.42939 22.0351 6.97066 20.8168 6.84178 19.5487V17.3029C6.85488 16.8086 6.93134 16.3014 7.05804 15.818C7.26119 15.0939 7.60633 14.4219 8.07818 13.8388L2.21948 10.6045V24.9637L10.1709 29.5312V27.6539L10.184 27.6799H10.1862Z" fill="#8C6A26"></path><path d="M11.9467 4.24799V4.29785V4.22197L12.139 3.66486L11.8572 2.87796V2.61133H11.4094L11.5754 3.10558L11.9577 4.26099H11.9314L11.9446 4.24799H11.9467Z" fill="#FECB46"></path><path d="M11.0664 4.78156C11.0664 4.78156 11.0161 4.76855 11.003 4.74254C10.9899 4.71652 10.9768 4.70352 10.9637 4.67967L10.6054 3.66516L10.4023 3.08203H9.90424C10.0069 3.34867 10.0965 3.63915 10.186 3.90578C10.2887 4.17241 10.3652 4.43905 10.4547 4.70568C10.494 4.82058 10.5312 4.94631 10.5814 5.0612C10.7605 5.59447 10.9397 6.10172 11.1166 6.63499V6.73688C11.1166 6.63499 11.18 6.55912 11.2193 6.48325L11.8069 4.83358H11.0292L11.0685 4.79456V4.78156H11.0664Z" fill="#FECB46"></path><path d="M19.0179 7.88989C18.712 7.78801 18.3931 7.78801 18.0851 7.88989L17.9322 7.93975V12.5072C17.9322 12.5072 17.906 12.5831 17.882 12.6221L17.0912 13.409V14.2219C17.0912 14.5904 17.231 14.9459 17.4866 15.2104C17.7422 15.4771 18.0873 15.6418 18.4565 15.6678C18.712 15.6808 18.9807 15.618 19.2101 15.5031C19.4657 15.3643 19.6688 15.1476 19.8108 14.8939L19.8611 14.779C19.9375 14.6013 19.9768 14.4235 19.9637 14.2328V11.1372L19.5946 11.5057V12.0628C19.5946 12.0628 19.5684 12.1387 19.5443 12.1777L18.664 13.0535V13.8144C18.7404 13.8534 18.8169 13.9033 18.8671 13.9791C18.9174 14.055 18.9436 14.1439 18.9436 14.2197C18.9436 14.3346 18.8934 14.4474 18.8169 14.5232C18.7404 14.5991 18.6247 14.6511 18.5111 14.6511C18.3975 14.6511 18.2817 14.6013 18.2053 14.5232C18.1288 14.4474 18.0786 14.3325 18.0786 14.2197C18.0786 14.1309 18.1048 14.042 18.155 13.9791C18.2053 13.9033 18.2708 13.8512 18.3582 13.8144V11.0115C18.3582 11.0115 18.3844 10.9356 18.4084 10.8966L20.0031 9.31194C20.0162 9.00845 19.9266 8.7028 19.7606 8.44917C19.5946 8.19554 19.339 8.00478 19.0463 7.9029L19.0201 7.88989H19.0179Z" fill="#FECB46"></path><path d="M10.2363 11.9368V11.9866L10.7977 11.5682L11.2324 11.2387L13.8865 3.13348L14.1923 2.18183C14.1923 2.18183 14.2317 2.11896 14.2557 2.09295C14.2819 2.06694 14.319 2.06694 14.3584 2.06694H15.0355L15.1622 1.73744C15.1622 1.73744 15.0858 1.64856 15.0727 1.5987C15.0465 1.54884 15.0465 1.48381 15.0465 1.43395C15.0465 1.31906 15.0967 1.20634 15.1732 1.13047C15.2496 1.05459 15.3654 1.00257 15.479 1.00257C15.5926 1.00257 15.7083 1.05243 15.7848 1.13047C15.8613 1.20634 15.9115 1.32123 15.9115 1.43395C15.9115 1.54668 15.8722 1.64856 15.7957 1.73744C15.7193 1.81331 15.6166 1.86534 15.503 1.87618L15.3501 2.33357L12.6305 10.5797C12.7703 10.5667 12.9232 10.5667 13.0652 10.5797L14.6489 5.77164C14.6489 5.77164 14.6882 5.70878 14.7122 5.68276C14.7385 5.65675 14.7756 5.65675 14.8149 5.65675H15.5554L16.2064 3.76646L16.4991 2.89069C16.6018 2.57419 16.7154 2.26854 16.8312 1.95205C16.8312 1.88918 16.8574 1.82415 16.8574 1.76128C16.9338 1.40577 16.8574 1.02641 16.6651 0.720759C16.4729 0.417272 16.1671 0.18749 15.811 0.0986116C15.4528 0.00973339 15.0705 0.0487531 14.7516 0.226509C14.4326 0.404266 14.1902 0.696914 14.0744 1.03942C13.9717 1.31906 13.8712 1.59653 13.7686 1.91519C13.5654 2.49832 13.3601 3.07061 13.1678 3.66675L12.8489 4.54252C12.3902 5.77381 11.9424 7.01594 11.5077 8.34911L10.245 11.9519H10.2581L10.2319 11.9389L10.2363 11.9368Z" fill="#FECB46"></path><path d="M17.8448 24.4953H18.4826C19.6579 24.3695 20.7545 23.8363 21.5846 22.9865C22.5173 22.0739 23.0656 20.8296 23.1159 19.5224V17.708C22.9236 17.7709 22.7205 17.8229 22.5282 17.8467V19.078C22.5282 20.0037 22.1591 20.9055 21.495 21.5645C20.8309 22.2235 19.9375 22.592 18.9938 22.592H16.5428V25.2301L17.6657 26.3205H19.7846V25.0524H19.6819C19.0943 25.2301 18.4826 25.332 17.8557 25.332C17.7924 25.332 17.729 25.332 17.6766 25.293C17.6263 25.267 17.5739 25.2301 17.5237 25.1911C17.4603 25.1283 17.421 25.0524 17.4079 24.9765C17.3948 24.9006 17.4079 24.8118 17.4472 24.7359C17.4734 24.66 17.5368 24.5972 17.6001 24.5451C17.6635 24.4953 17.753 24.4823 17.8295 24.4823H17.8164L17.8426 24.4953H17.8448Z" fill="#FECB46"></path><path d="M15.6101 7.88983C15.6101 7.88983 15.5707 7.99172 15.5707 8.05458C15.5707 8.11745 15.5707 8.16947 15.6101 8.21933C15.8023 8.7526 15.9792 9.28587 16.1584 9.81697C16.1715 9.85599 16.1846 9.90585 16.2086 9.94487V9.82998C16.2217 9.70208 16.2217 9.56335 16.2086 9.43762C16.1824 9.13413 16.2086 8.82847 16.3113 8.53799C16.4139 8.24535 16.5668 7.98088 16.77 7.7511C16.9994 7.47146 17.3052 7.25685 17.6503 7.12895C17.8797 7.06608 18.1222 7.02707 18.3515 7.02707C18.8234 6.98805 19.2952 7.10294 19.7037 7.34356C20.1122 7.58418 20.4311 7.9527 20.6234 8.39709C20.6867 8.54883 20.7391 8.70058 20.7894 8.86749C21.1214 8.60086 21.5168 8.4231 21.9515 8.36024C22.3731 8.29737 22.8078 8.36024 23.2032 8.53799C23.5986 8.71575 23.9306 8.99539 24.1731 9.3379C24.4156 9.69341 24.5554 10.0988 24.5685 10.5302V11.4818L28.0527 9.55251L17.2156 3.31152C16.604 5.06307 15.6581 7.77711 15.6079 7.91585V7.88983H15.6101Z" fill="#8C6A26"></path><path d="M19.5028 30.1664L19.7059 30.0146V26.6524H17.5477C17.5477 26.6524 17.4712 26.6264 17.4319 26.6004L16.5516 25.7246V27.2854L19.5137 30.2032V30.1772L19.5006 30.1642L19.5028 30.1664Z" fill="#FECB46"></path><path d="M19.1729 30.357L16.237 27.4392C16.237 27.4392 16.1977 27.3633 16.1868 27.3243V22.5791H15.4856V32.5508L19.0222 30.4567L19.1489 30.3809L19.1882 30.3419L19.1751 30.3549L19.1729 30.357Z" fill="#FECB46"></path><path d="M9.52209 2.02837C9.59854 2.269 9.675 2.49878 9.76456 2.7394H10.492C10.492 2.7394 10.5684 2.7394 10.5947 2.76541C10.6209 2.79143 10.6449 2.81527 10.658 2.85429L10.8743 3.50028L11.2063 4.45193H11.665L11.2828 3.29651L10.9507 2.29501L10.8109 1.87663C10.7082 1.87663 10.6187 1.83761 10.5422 1.77475C10.4658 1.71188 10.4155 1.623 10.4024 1.53413V1.44525C10.4024 1.33036 10.4527 1.21763 10.5291 1.14176C10.6056 1.06589 10.7214 1.01386 10.8349 1.01386C10.9376 1.01386 11.0512 1.05288 11.1277 1.12875C11.1779 1.16777 11.2172 1.21763 11.2434 1.26749C11.2696 1.31735 11.2828 1.38238 11.2828 1.44525C11.2828 1.50811 11.2696 1.57314 11.2434 1.623C11.2172 1.68587 11.1801 1.73789 11.1277 1.77475L11.2434 2.13026L11.2937 2.282H11.9577C11.9577 2.282 12.0342 2.282 12.0604 2.30802C12.0866 2.33403 12.1107 2.35787 12.1238 2.39689L12.2395 2.72639L12.3925 3.17078L12.6349 2.49878V2.44892C12.648 2.42291 12.6611 2.38606 12.6611 2.34704C12.6611 2.30802 12.6611 2.28417 12.6349 2.24515C12.5323 1.97852 12.4558 1.72489 12.3662 1.47126C12.2636 1.21763 12.2395 1.11575 12.1871 0.937991C12.1478 0.810093 12.0844 0.69737 12.008 0.582478C11.9446 0.4936 11.8682 0.404722 11.7655 0.341857C11.5864 0.190114 11.3832 0.0882289 11.1648 0.0383704C10.9485 -0.0114881 10.717 -0.0114881 10.4876 0.0383704C10.2714 0.0882289 10.066 0.190114 9.88689 0.331018C9.70777 0.469755 9.58107 0.660518 9.49151 0.864287C9.41505 1.01603 9.37573 1.18078 9.36481 1.35854C9.36481 1.56231 9.40413 1.7509 9.46748 1.94166V2.01754H9.5068L9.5199 2.03054L9.52209 2.02837Z" fill="#FECB46"></path><path d="M17.6656 2.15644L29.8549 9.17131V25.6636L15.431 33.9228L1.02014 25.6636V9.1453L9.40624 4.37622L9.0742 3.39856L0 8.56217V26.2576L15.4069 35.0999L30.8138 26.2576V8.56217L17.705 1.04004C17.7814 1.40856 17.7683 1.80092 17.6656 2.16944V2.15644Z" fill="#FECB46"></path><path d="M20.8703 10.6044V10.897L21.661 11.6839C21.661 11.6839 21.7003 11.7598 21.7113 11.7988V14.2982H22.1591V11.5452L20.8965 10.29C20.8571 10.3919 20.8462 10.4938 20.82 10.6065H20.8703V10.6044Z" fill="#FECB46"></path><path d="M13.4147 10.6036C13.5174 10.6036 13.6069 10.6426 13.7074 10.6665H13.797C13.8735 10.4757 13.9237 10.285 14.0001 10.0964L14.4217 8.76535L14.6904 8.04132C14.9329 7.3433 15.1754 6.64528 15.4179 5.94727H14.9198L13.4016 10.5646L13.4278 10.6036H13.4147Z" fill="#FECB46"></path><path d="M15.1775 22.6436H12.1389L13.0324 23.3784H15.112V22.6436H15.1753H15.1775Z" fill="#FECB46"></path><path d="M9.71435 21.5405H13.6201L12.5738 20.5H11.5646L10.9267 21.1352C10.9267 21.1352 10.8503 21.1742 10.8109 21.185H8.08038C8.13063 21.3129 8.18305 21.4256 8.23329 21.5535H9.71435V21.5405Z" fill="#FECB46"></path><path d="M20.9969 9.93205L21.4949 10.4263L22.7335 9.19501C22.6068 9.14515 22.4648 9.13215 22.3119 9.11914C22.0301 9.11914 21.7636 9.19501 21.5343 9.33375C21.3049 9.47249 21.1127 9.67625 20.986 9.91688L20.9991 9.92988L20.9969 9.93205Z" fill="#FECB46"></path><path d="M7.95144 20.8295H10.7344L11.3723 20.1943L13.8604 17.7209C13.8604 17.7209 13.9368 17.6819 13.9762 17.6711H15.0225C14.9198 17.5822 14.8303 17.4933 14.7298 17.4174C14.4371 17.1768 14.1181 16.973 13.773 16.8213L10.9398 19.6502C10.9398 19.6502 10.8633 19.6892 10.824 19.7001H7.74829C7.74829 19.815 7.74829 19.9277 7.78761 20.0426C7.82693 20.3092 7.89028 20.5759 7.97984 20.8295H7.95363H7.95144Z" fill="#FECB46"></path><path d="M18.9283 22.2626C19.7824 22.2626 20.6125 21.9201 21.2132 21.324C21.8139 20.7278 22.1569 19.9041 22.1569 19.0522V17.8469C21.8118 17.8209 21.4797 17.719 21.187 17.5434C20.9183 17.3917 20.6758 17.1879 20.4858 16.9473V18.3043C20.4858 19.2299 20.1166 20.1317 19.4525 20.7907C18.7885 21.4497 17.895 21.8182 16.9514 21.8182H8.39923C8.47569 21.957 8.56525 22.0849 8.65481 22.2106H18.9305V22.2626H18.9283Z" fill="#FECB46"></path><path d="M23.7275 14.0291V10.5152C23.7275 10.2876 23.6641 10.0578 23.5483 9.84319C23.4326 9.63942 23.2687 9.46167 23.0765 9.33594L21.7615 10.6431L22.4517 11.3281C22.4517 11.3281 22.4911 11.404 22.502 11.443V15.1347C22.502 15.1347 22.6178 15.1737 22.668 15.1976C22.7182 15.2366 22.7576 15.2734 22.7947 15.3255C22.834 15.3753 22.8449 15.4273 22.858 15.4902V15.668C22.858 15.7308 22.8187 15.7829 22.7947 15.8327C22.7554 15.8826 22.7182 15.9216 22.668 15.9606C22.6178 15.9996 22.5653 16.0105 22.502 16.0235H22.3229C22.2071 16.0235 22.0935 15.9736 22.017 15.8956C21.9406 15.8197 21.8903 15.7048 21.8903 15.5921C21.8903 15.5032 21.9165 15.4143 21.9668 15.3385C22.017 15.2626 22.0935 15.2106 22.1721 15.1737V14.6404H21.4818C21.4556 14.6404 21.4425 14.6144 21.4316 14.6014C21.4185 14.5884 21.4054 14.5624 21.3923 14.5516V11.8505L20.8942 11.4061V15.8089C20.9445 16.1644 21.1236 16.4809 21.4054 16.7085C21.6872 16.9361 22.0301 17.051 22.3884 17.038C22.7576 17.025 23.1158 16.8602 23.3714 16.5936C23.627 16.327 23.7668 15.9715 23.7668 15.6051V13.9945V14.0443L23.7275 14.0313V14.0291Z" fill="#FECB46"></path></g></g><path d="M45.002 20.2405V23.2537H36.2227V11.214H39.6282V20.2514H44.991L45.002 20.2405ZM45.8277 18.6234V11.1923H49.2332V18.6451C49.2332 19.937 50.0262 20.6069 51.2757 20.6069C52.5252 20.6069 53.316 19.9349 53.316 18.6451V11.1923H56.7215V18.6234C56.7215 21.888 54.489 23.5139 51.2626 23.5139C48.0362 23.5139 45.8036 21.8967 45.8036 18.6234H45.8255H45.8277ZM57.7701 17.2165C57.7701 13.3536 60.1074 10.9192 63.9892 10.9192C67.0562 10.9192 69.5006 12.6295 69.9331 15.6731H66.4948C66.178 14.4765 65.2365 13.8153 63.987 13.8153C62.2001 13.8153 61.3111 15.1073 61.3111 17.2165C61.3111 19.3257 62.2001 20.6177 63.987 20.6177C65.2977 20.6177 66.2829 19.872 66.5472 18.5193H69.9527C69.5617 21.7515 67.1282 23.5052 63.987 23.5052C60.2319 23.5052 57.7679 21.0708 57.7679 17.2078V17.2187L57.7701 17.2165ZM78.3541 16.124L83.125 23.2516H79.1056L75.9534 18.4131L74.5794 19.7983V23.2516H71.1738V11.2118H74.5794V15.9765L79.0117 11.2118H83.1359L78.3651 16.1348L78.3541 16.124ZM95.0018 11.1901L90.5587 18.5909V23.2299H87.1531V18.5909L82.6357 11.1901H86.4759L87.2579 12.545C87.8194 13.5205 88.3895 14.5068 88.9291 15.4845C89.4468 14.4873 90.0082 13.4576 90.5368 12.5255L91.2883 11.1923H95.0215H94.9996L95.0018 11.1901ZM110.774 19.6812C110.774 21.8122 109.4 23.2385 106.204 23.2385H100.048V11.2096H106.088C109.24 11.2096 110.275 12.7314 110.275 14.264C110.275 15.4498 109.662 16.3429 108.69 16.783C109.992 17.2447 110.774 18.4933 110.774 19.6899V19.6791V19.6812ZM103.464 13.8348V15.9028H105.854C106.499 15.9028 106.892 15.4823 106.892 14.8732C106.892 14.264 106.501 13.8435 105.854 13.8435H103.464V13.8326V13.8348ZM107.25 19.4818C107.25 18.7578 106.785 18.3893 106.022 18.3893H103.462V20.5939H106.022C106.793 20.5939 107.25 20.2275 107.25 19.5013V19.4796V19.4818ZM120.684 20.2275V23.2407H111.905V11.2118H115.311V20.2492H120.673L120.684 20.2275ZM121.191 17.2143C121.191 13.3839 123.782 10.917 127.559 10.917C131.336 10.917 133.927 13.3622 133.927 17.2143C133.927 21.0664 131.325 23.5117 127.559 23.5117C123.793 23.5117 121.191 21.0664 121.191 17.2143ZM130.394 17.2143C130.394 15.0834 129.263 13.8456 127.57 13.8456C125.877 13.8456 124.745 15.0834 124.745 17.2143C124.745 19.3452 125.877 20.583 127.57 20.583C129.263 20.583 130.394 19.3648 130.394 17.2143ZM134.636 17.2143C134.636 13.3514 136.974 10.917 140.856 10.917C143.923 10.917 146.367 12.6274 146.799 15.6709H143.361C143.044 14.4743 142.103 13.8131 140.853 13.8131C139.067 13.8131 138.177 15.1051 138.177 17.2143C138.177 19.3236 139.067 20.6156 140.853 20.6156C142.166 20.6156 143.149 19.8698 143.414 18.5172H146.819C146.428 21.7493 143.995 23.503 140.853 23.503C137.109 23.503 134.634 21.0686 134.634 17.2057V17.2165L134.636 17.2143ZM155.221 16.1218L159.991 23.2494H155.972L152.82 18.4109L151.444 19.7961V23.2494H148.038V11.2096H151.444V15.9744L155.876 11.2096H160L155.229 16.1326L155.218 16.1218H155.221Z" fill="#ECECEC"></path></g><defs><clipPath id="clip0_2006_2851"><rect width="160" height="36" fill="white"></rect></clipPath></defs></svg>