<svg width="138" height="158" viewBox="0 0 138 158" fill="none" xmlns="http://www.w3.org/2000/svg">
<g clip-path="url(#clip0_116_13587)">
<g clip-path="url(#clip1_116_13587)">
<path d="M53.2023 46.6932C52.424 46.9716 51.7013 47.3057 51.0342 47.7511L62.5975 12.508L63.2646 10.448H65.1548L64.9324 11.1161L53.3691 46.5819L53.2023 46.6932Z" fill="#FECB46"/>
<path d="M81.3325 55.1562L83.8898 52.5951V50.1454C83.8898 50.1454 84.001 49.8113 84.1122 49.6443L87.003 46.7491V42.9075L81.3325 48.5864V55.1562Z" fill="#FECB46"/>
<path d="M70.3249 54.4324C68.8795 50.201 67.4341 45.9139 65.9887 41.6825C65.9331 41.5155 65.8775 41.2928 65.7663 41.1257C65.7663 41.2371 65.7663 41.2928 65.7663 41.4041C64.988 43.5755 64.2097 45.8025 63.487 47.9739C63.4314 48.0853 63.3758 48.1966 63.3758 48.308C63.3758 48.4193 63.3758 48.5307 63.487 48.642C64.6545 49.6442 65.6551 50.9248 66.2667 52.3167C66.9338 53.7086 67.2673 55.2675 67.2673 56.8264C67.2673 58.3854 66.9338 59.9443 66.2667 61.3362C65.5995 62.7281 64.6545 64.0087 63.487 65.0108C62.6531 65.679 61.8192 66.3471 60.9297 67.0152L58.2057 69.0752H58.5948C62.3752 70.2444 65.8219 72.3601 68.6016 75.1996C71.2144 77.8721 73.1046 81.0456 74.272 84.6089C74.6056 85.7224 74.8836 86.8916 74.9947 88.0608C74.9947 88.5062 74.8836 88.896 74.6612 89.23C74.4388 89.5084 74.1608 89.7868 73.8273 89.8981C73.4937 90.0095 73.1046 90.0095 72.771 89.8981C72.3819 89.7868 72.0483 89.6197 71.7704 89.3414C71.4924 89.063 71.3256 88.6733 71.27 88.2835C70.7141 84.9429 69.3243 81.7694 67.1561 79.0969L66.8782 78.7629H61.2077L51.8125 88.3392H54.9813C54.9813 88.3392 55.3149 88.4506 55.4816 88.5619L61.5413 94.2409H67.3229C70.8253 93.9068 74.0497 92.2922 76.3846 89.6754C78.7195 87.0586 80.0537 83.7181 80.0537 80.2105V72.1931C80.0537 72.1931 79.4978 72.1931 79.2198 72.1931C78.1079 72.0261 77.1073 71.692 76.1622 71.1352C74.6612 70.3001 73.327 69.1309 72.4375 67.6276C71.4924 66.18 70.9921 64.4541 70.9365 62.7281V56.4924C70.9365 55.7686 70.8253 55.1005 70.6029 54.4324L70.4361 54.321L70.3249 54.4324Z" fill="#FECB46"/>
<path d="M48.3661 71.9703L53.3138 68.1286L55.3708 66.514L55.8155 66.1799H50.0338L47.8657 67.7389C47.8657 67.7389 47.5877 67.7389 47.421 67.7389H35.1349C34.4122 69.4648 33.9675 71.2465 33.7451 73.0838H44.4745C44.4745 73.0838 44.6969 73.0838 44.7525 73.0838C44.8637 73.0838 44.9193 73.1951 44.9749 73.2508C45.0305 73.3065 45.0861 73.4178 45.1417 73.4735C45.1417 73.5849 45.1417 73.6405 45.1417 73.7519V84.7758H46.6983L58.4284 73.1951C57.2053 72.7497 55.8711 72.4157 54.5925 72.2486C54.4257 72.2486 54.3145 72.2486 54.1477 72.2486C53.9809 72.2486 53.8697 72.36 53.7586 72.4713C52.6467 73.3622 51.4793 74.1973 50.3118 75.0325C50.0338 75.2552 49.7003 75.3665 49.3667 75.4779C48.9776 75.5335 48.5328 75.4779 48.1993 75.3108C47.8657 75.0881 47.5877 74.7541 47.421 74.3643C47.2542 73.9746 47.2542 73.5292 47.3654 73.1395C47.4766 72.7497 47.7545 72.36 48.0881 72.1373L48.2549 71.9703H48.3661Z" fill="#FECB46"/>
<path d="M40.1936 60.7235C39.7489 61.1132 39.4153 61.5029 39.0261 61.8927L38.359 62.7278H47.0315L54.7033 57.2158V56.8818C54.7033 56.3807 54.9257 55.8796 55.2593 55.5456C55.5928 55.2115 56.0932 54.9888 56.5935 54.9888C57.0938 54.9888 57.5942 55.2115 57.9277 55.5456C58.2613 55.8796 58.4837 56.3807 58.4837 56.8818C58.4837 57.3829 58.2613 57.884 57.9277 58.218C57.5942 58.5521 57.0938 58.7748 56.5935 58.7748C56.2044 58.7748 55.8152 58.6634 55.4816 58.4407L47.8098 64.0084C47.8098 64.0084 47.5319 64.0084 47.3651 64.0084H37.1916L36.6912 64.7321C36.3577 65.2332 36.0797 65.79 35.8018 66.3468H47.0315L48.4769 65.2889L49.1441 64.7878C49.1441 64.7878 49.422 64.7878 49.5888 64.7878H57.6498C58.706 64.0084 59.8179 63.1732 60.8186 62.3381C61.8748 61.5586 62.7087 60.5007 63.1535 59.2759C63.5982 58.051 63.7094 56.7148 63.3758 55.4342C63.1535 54.265 62.5975 53.2072 61.8192 52.2607C61.0409 51.3698 60.0403 50.646 58.9284 50.2563C57.8166 49.8666 56.5935 49.6996 55.4261 49.9223C54.2586 50.0893 53.1467 50.5904 52.2017 51.3142L43.6404 57.8283C42.4173 58.7748 41.1387 59.6656 39.8044 60.6678H40.138L40.1936 60.7235Z" fill="#FECB46"/>
<path d="M75.6062 36.8384C74.8279 37.9519 74.3832 39.2881 74.4387 40.6801V56.8262L76.6069 54.6548V35.6692C76.2177 36.0032 75.8286 36.4487 75.5506 36.8384H75.6062Z" fill="#FECB46"/>
<path d="M81.388 72.3596V80.3213C81.388 83.2722 80.5541 86.1673 78.9975 88.6728C77.4409 91.1782 75.1616 93.1825 72.4375 94.4074H73.605C77.3297 94.4074 80.9432 92.9042 83.5561 90.2874C86.1689 87.6706 87.67 84.0516 87.67 80.3213V71.6358C87.5032 71.1348 87.3364 70.6337 87.2252 70.0769C85.613 71.3575 83.6673 72.0813 81.6659 72.1926L81.388 72.3596Z" fill="#FECB46"/>
<path d="M33.6338 75.3107V84.887H43.7517V74.5869H33.6894V75.255L33.6338 75.3107Z" fill="#FECB46"/>
<path d="M65.3773 141.677H65.5997L66.0444 141.955V103.873H56.6492C56.6492 103.873 56.3157 103.873 56.2045 103.873L50.534 99.3071H38.9707C40.1937 100.755 41.528 102.035 43.029 103.149C46.9205 106.044 51.5903 107.603 56.4269 107.603C56.7048 107.547 57.0384 107.547 57.3164 107.603C57.7055 107.77 58.0391 108.104 58.2614 108.438C58.4838 108.828 58.5394 109.273 58.4282 109.663C58.317 110.108 58.0947 110.442 57.7611 110.721C57.4275 110.999 56.9828 111.166 56.5937 111.166C54.3699 111.166 52.1462 110.776 50.0337 110.164L48.6995 109.774L55.2594 116.344H62.7089C62.7089 116.344 62.8757 116.344 62.9868 116.344C63.098 116.344 63.1536 116.455 63.2092 116.511C63.2648 116.567 63.3204 116.678 63.376 116.734C63.376 116.845 63.376 116.901 63.376 117.012V140.118L65.4329 141.454H65.3773V141.677Z" fill="#FECB46"/>
<path d="M60.9855 139.116L61.4303 139.339L61.8194 139.561V117.848H54.7591C54.7591 117.848 54.4256 117.736 54.2588 117.625L48.1436 111.556V113.895L53.5917 119.239H59.5401C59.5401 119.239 59.7069 119.239 59.8181 119.239C59.9293 119.239 59.9848 119.351 60.0404 119.407C60.096 119.462 60.1516 119.574 60.2072 119.629C60.2072 119.741 60.2072 119.796 60.2072 119.908V138.448L60.9299 138.893V139.06L60.9855 139.116Z" fill="#FECB46"/>
<path d="M42.6955 24.0325L11.9526 41.7375L38.8596 56.7144C39.2488 55.6009 39.7491 54.2647 40.0826 53.2068C42.1396 47.3608 44.1409 41.6262 46.1979 35.6688C46.2535 35.5018 46.3091 35.3904 46.3091 35.2234C46.3091 35.0564 46.3091 34.945 46.1979 34.778L43.5294 26.8163C43.1958 25.9255 42.9179 25.0346 42.6399 24.1995V24.0325H42.6955Z" fill="#8C6A26"/>
<path d="M124.528 109.496V46.5261L107.072 56.2695V68.6853C106.961 70.9123 106.127 73.028 104.681 74.754C104.57 74.921 104.459 75.1437 104.459 75.3664V84.6087C104.459 86.9471 104.181 89.2298 103.569 91.4569C102.624 95.0201 100.957 98.3607 98.6772 101.256C96.3979 104.151 93.5071 106.489 90.2271 108.215C90.1159 108.215 90.0603 108.327 90.0047 108.438C90.0047 108.549 89.8936 108.605 89.8936 108.717V129.706L124.528 109.663V109.496Z" fill="#8C6A26"/>
<path d="M52.702 120.687L48.0322 116.01V131.655L52.2017 134.049L58.7617 137.891V120.854H53.2024C53.2024 120.854 52.8688 120.742 52.702 120.631V120.687Z" fill="#FECB46"/>
<path d="M44.3633 121.411V108.605C44.3633 108.605 44.3633 108.383 44.2521 108.271C44.1965 108.16 44.0853 108.104 43.9742 108.049C40.7498 106.378 37.9145 104.04 35.6352 101.145C32.3552 96.635 30.3539 91.2901 29.798 85.7225V75.8678C29.8536 73.6964 30.1871 71.4693 30.7431 69.3536C31.6325 66.1801 33.1335 63.2293 35.1905 60.6681L9.67334 46.4707V109.496L44.3077 129.54V121.3L44.3633 121.411Z" fill="#8C6A26"/>
<path d="M52.0351 18.5768V18.7995C52.0351 18.7995 52.0351 18.5768 52.0351 18.4654L52.869 16.0157L51.6459 12.5637V11.3945H49.7002L50.4229 13.5659L52.0907 18.6324H51.9795L52.0351 18.5768Z" fill="#FECB46"/>
<path d="M48.1991 20.9147C48.1991 20.9147 47.9767 20.859 47.9211 20.7477C47.8655 20.6363 47.8099 20.5807 47.7543 20.4693L46.1977 16.0152L45.3083 13.4541H43.1401C43.5849 14.6233 43.974 15.9039 44.3632 17.0731C44.8079 18.2423 45.1415 19.4115 45.5306 20.5807C45.6974 21.0817 45.8642 21.6385 46.0866 22.1396C46.8649 24.478 47.6432 26.705 48.4215 29.0435C48.4215 29.2105 48.4215 29.3218 48.4215 29.4889C48.4215 29.0435 48.6994 28.7094 48.8662 28.3753L51.4235 21.1374H48.0323L48.1991 20.9704V20.9147Z" fill="#FECB46"/>
<path d="M82.8335 34.5557C81.4993 34.1103 80.1094 34.1103 78.7752 34.5557L78.1081 34.7784V54.8219C78.1081 54.8219 77.9969 55.1559 77.8857 55.323L74.439 58.7749V62.3382C74.439 63.9528 75.0505 65.5117 76.1623 66.6809C77.2742 67.8501 78.7752 68.5739 80.3874 68.6853C81.4993 68.741 82.6667 68.4626 83.6674 67.9615C84.7792 67.3491 85.6687 66.4026 86.2803 65.289L86.5026 64.7879C86.8362 64.0085 87.003 63.229 86.9474 62.3939V48.8089L85.3352 50.4235V52.8732C85.3352 52.8732 85.224 53.2073 85.1128 53.3743L81.2769 57.216V60.5565C81.6104 60.7236 81.944 60.9463 82.1664 61.2803C82.3887 61.6144 82.4999 62.0041 82.4999 62.3382C82.4999 62.8393 82.2776 63.3404 81.944 63.6744C81.6104 64.0085 81.1101 64.2312 80.6098 64.2312C80.1094 64.2312 79.6091 64.0085 79.2755 63.6744C78.942 63.3404 78.7196 62.8393 78.7196 62.3382C78.7196 61.9485 78.8308 61.5587 79.0532 61.2803C79.2755 60.9463 79.5535 60.7236 79.9427 60.5565V48.2521C79.9427 48.2521 80.0538 47.918 80.165 47.751L87.1141 40.7915C87.1697 39.4552 86.7806 38.119 86.0579 37.0055C85.3352 35.892 84.2233 35.0568 82.9447 34.6114L82.8335 34.5557Z" fill="#FECB46"/>
<path d="M44.5854 52.3164C44.5854 52.3164 44.5854 52.4835 44.5854 52.5392L47.0315 50.7018L48.9217 49.2543L60.485 13.6771L61.8192 9.5014C61.8192 9.5014 61.986 9.22302 62.0972 9.11167C62.2084 9.00032 62.3752 9.00032 62.542 9.00032H65.4884L66.0443 7.55273C66.0443 7.55273 65.7108 7.163 65.6552 6.94029C65.544 6.71759 65.544 6.43921 65.544 6.2165C65.544 5.71542 65.7663 5.21433 66.0999 4.88027C66.4335 4.54622 66.9338 4.32351 67.4341 4.32351C67.9345 4.32351 68.4348 4.54622 68.7684 4.88027C69.1019 5.21433 69.3243 5.71542 69.3243 6.2165C69.3243 6.71759 69.1575 7.163 68.824 7.55273C68.4904 7.88679 68.0457 8.1095 67.5453 8.16517L66.8782 10.1695L55.0369 46.3591C55.6484 46.3034 56.3155 46.3034 56.9271 46.3591L63.8206 25.2578C63.8206 25.2578 63.9874 24.9794 64.0986 24.868C64.2097 24.7567 64.3765 24.7567 64.5433 24.7567H67.7677L70.6029 16.4609L71.8816 12.6193C72.3263 11.2274 72.8266 9.89114 73.327 8.49923C73.327 8.22085 73.4382 7.94247 73.4382 7.66409C73.7717 6.10515 73.4382 4.43486 72.6043 3.09863C71.7704 1.7624 70.4362 0.76023 68.8795 0.370497C67.3229 -0.0192372 65.6552 0.147792 64.2653 0.927259C62.8755 1.70673 61.8192 2.98728 61.3189 4.49054C60.8742 5.71542 60.4294 6.94029 59.9847 8.3322C59.0952 10.8933 58.2057 13.3987 57.3718 16.0155L55.982 19.8572C53.9806 25.2578 52.0349 30.7141 50.1447 36.5601L44.641 52.3721H44.6966L44.5854 52.3164Z" fill="#FECB46"/>
<path d="M77.7188 107.436H80.4985C85.613 106.879 90.394 104.541 94.0075 100.81C98.0658 96.8016 100.456 91.3453 100.679 85.6106V77.6489C99.8448 77.9273 98.9553 78.15 98.1214 78.2614V83.662C98.1214 87.7263 96.5092 91.6793 93.6184 94.5745C90.7276 97.4697 86.8361 99.0843 82.7222 99.0843H72.0483V110.665L76.9405 115.453H86.1689V109.885H85.7242C83.1669 110.665 80.4985 111.11 77.7744 111.11C77.4964 111.11 77.2185 111.11 76.9961 110.943C76.7737 110.832 76.5514 110.665 76.329 110.498C76.051 110.22 75.8843 109.885 75.8287 109.551C75.7731 109.217 75.8287 108.828 75.9954 108.494C76.1066 108.16 76.3846 107.881 76.6626 107.658C76.9405 107.436 77.3297 107.38 77.6632 107.38H77.6076L77.7188 107.436Z" fill="#FECB46"/>
<path d="M67.99 34.5554C67.99 34.5554 67.8232 35.0008 67.8232 35.2792C67.8232 35.5576 67.8232 35.7803 67.99 36.003C68.8239 38.3414 69.6022 40.6798 70.3805 43.0182C70.4361 43.1852 70.4917 43.4079 70.6029 43.575V43.0739C70.6585 42.5171 70.6585 41.9047 70.6029 41.3479C70.4917 40.0117 70.6029 38.6755 71.0476 37.3949C71.4924 36.1144 72.1595 34.9452 73.049 33.943C74.0497 32.7181 75.3839 31.7716 76.8849 31.2149C77.8856 30.9365 78.9418 30.7694 79.9425 30.7694C81.9994 30.6024 84.0564 31.1035 85.8353 32.1613C87.6143 33.2192 89.0041 34.8338 89.838 36.7825C90.116 37.4506 90.3384 38.1187 90.5607 38.8425C92.0062 37.6733 93.7295 36.8938 95.6197 36.6154C97.4543 36.3371 99.3444 36.6154 101.068 37.3949C102.791 38.1744 104.237 39.3993 105.293 40.9025C106.349 42.4615 106.961 44.2431 107.016 46.1361V50.3118L122.193 41.849L74.9947 14.4563C72.3263 22.1396 68.2124 34.0543 67.99 34.6668V34.5554Z" fill="#8C6A26"/>
<path d="M84.946 132.323L85.8354 131.655V116.901H76.4402C76.4402 116.901 76.1067 116.79 75.9399 116.678L72.104 112.837V119.685L85.0016 132.49V132.379L84.946 132.323Z" fill="#FECB46"/>
<path d="M83.5004 133.158L70.7141 120.353C70.7141 120.353 70.5473 120.019 70.4917 119.852V99.0288H67.4341V142.79L82.8333 133.604L83.3892 133.27L83.556 133.103L83.5004 133.158Z" fill="#FECB46"/>
<path d="M41.4723 8.83325C41.8058 9.8911 42.1394 10.8933 42.5286 11.9511H45.6974C45.6974 11.9511 46.0309 11.9511 46.1421 12.0625C46.2533 12.1738 46.3645 12.2852 46.4201 12.4522L47.3651 15.2917L48.8106 19.4674H50.8119L49.1441 14.4009L47.6987 10.0025L47.0872 8.16513C46.6424 8.16513 46.2533 7.99811 45.9197 7.71972C45.5862 7.44134 45.3638 7.05161 45.3082 6.66188V6.27214C45.3082 5.77106 45.5306 5.26997 45.8641 4.93591C46.1977 4.60185 46.698 4.37915 47.1984 4.37915C47.6431 4.37915 48.1434 4.54618 48.477 4.88024C48.6994 5.04726 48.8661 5.26997 48.9773 5.49267C49.0885 5.71538 49.1441 5.99376 49.1441 6.27214C49.1441 6.55052 49.0885 6.8289 48.9773 7.05161C48.8661 7.32999 48.6994 7.5527 48.477 7.71972L48.9773 9.27866L49.1997 9.94677H52.0905C52.0905 9.94677 52.4241 9.94677 52.5353 10.0581C52.6465 10.1695 52.7577 10.2808 52.8132 10.4479L53.3136 11.8954L53.9807 13.8441L55.037 10.8933C55.037 10.8933 55.037 10.7262 55.037 10.6706C55.0926 10.5592 55.1481 10.3922 55.1481 10.2252C55.1481 10.0581 55.1481 9.94677 55.037 9.77975C54.5922 8.61054 54.2587 7.49702 53.8695 6.38349C53.4248 5.26997 53.3136 4.82456 53.0912 4.04509C52.9244 3.48833 52.6465 2.98724 52.3129 2.48616C52.0349 2.09642 51.7014 1.70669 51.2566 1.42831C50.4783 0.760193 49.5889 0.314783 48.6438 0.0920776C47.6987 -0.130627 46.698 -0.130627 45.6974 0.0920776C44.7523 0.314783 43.8628 0.760193 43.0845 1.37263C42.3062 1.98507 41.7503 2.82021 41.3611 3.71103C41.0275 4.37915 40.8608 5.10294 40.8052 5.88241C40.8052 6.77323 40.972 7.60837 41.2499 8.44352C41.2499 8.55487 41.2499 8.66622 41.2499 8.77757H41.4167L41.4723 8.83325Z" fill="#FECB46"/>
<path d="M76.9406 9.38999L130.032 40.179V112.558L67.2118 148.803L4.44743 112.558V40.0676L40.972 19.1333L39.5266 14.8463L0 37.5065V115.175L67.1006 153.981L134.201 115.175V37.5065L77.1074 4.49048C77.4409 6.10509 77.3853 7.83105 76.9406 9.44567V9.38999Z" fill="#FECB46"/>
<path d="M90.8947 46.4703V47.7508L94.3415 51.2028C94.3415 51.2028 94.5083 51.5368 94.5639 51.7038V62.6721H96.5096V50.5903L91.0059 45.0784C90.8391 45.5238 90.7835 45.9692 90.6724 46.4703H90.8391H90.8947Z" fill="#FECB46"/>
<path d="M58.4282 46.4705C58.8729 46.4705 59.262 46.6376 59.7068 46.7489H60.0959C60.4295 45.9138 60.6519 45.0786 60.9854 44.2435L62.82 38.3975L63.9874 35.2239C65.0437 32.1617 66.1 29.0995 67.1562 26.0374H64.9881L58.3726 46.3035L58.4837 46.4705H58.4282Z" fill="#FECB46"/>
<path d="M66.0998 99.3071H52.8687L56.7602 102.536H65.8218V99.3071H66.0998Z" fill="#FECB46"/>
<path d="M42.3063 94.4629H59.3178L54.7591 89.8975H50.3673L47.5877 92.6813C47.5877 92.6813 47.2541 92.8483 47.0873 92.904H35.1904C35.4128 93.4607 35.6352 93.9618 35.8575 94.5186H42.3063V94.4629Z" fill="#FECB46"/>
<path d="M91.4501 43.5196L93.6182 45.691L99.0108 40.2904C98.4548 40.0677 97.8433 40.012 97.1762 39.9563C95.9531 39.9563 94.7857 40.2904 93.785 40.9028C92.7844 41.5152 91.9505 42.4061 91.3945 43.4639L91.4501 43.5196Z" fill="#FECB46"/>
<path d="M34.6346 91.3457H46.7539L49.5335 88.5618L60.3741 77.705C60.3741 77.705 60.7077 77.5379 60.8745 77.4823H65.4331C64.9883 77.0925 64.5992 76.7028 64.1544 76.3687C62.8758 75.3109 61.486 74.4201 59.985 73.752L47.6433 86.1678C47.6433 86.1678 47.3098 86.3348 47.143 86.3905H33.7451C33.7451 86.8916 33.7451 87.3926 33.9119 87.8937C34.0787 89.0629 34.3566 90.2321 34.7458 91.3457H34.6902H34.6346Z" fill="#FECB46"/>
<path d="M82.4442 97.6369C86.169 97.6369 89.7825 96.1337 92.3954 93.5169C95.0082 90.9001 96.5092 87.2812 96.5092 83.5509V78.2616C95.0082 78.1503 93.5628 77.7048 92.2842 76.9254C91.1167 76.2573 90.0605 75.3664 89.2266 74.3086V80.266C89.2266 84.3303 87.6144 88.2833 84.7235 91.1785C81.8327 94.0737 77.9412 95.6883 73.8273 95.6883H36.5801C36.9136 96.3007 37.3028 96.8575 37.6919 97.4142H82.4442V97.6369Z" fill="#FECB46"/>
<path d="M103.347 61.5028V46.0805C103.347 45.0783 103.07 44.0761 102.569 43.1296C102.069 42.2388 101.346 41.4594 100.512 40.9026L94.7862 46.6372L97.7882 49.6438C97.7882 49.6438 97.955 49.9778 98.0106 50.1448V66.3466C98.0106 66.3466 98.5109 66.5137 98.7333 66.625C98.9556 66.7921 99.1224 66.9591 99.2892 67.1818C99.456 67.4045 99.5116 67.6272 99.5672 67.9056C99.5672 68.184 99.5672 68.4067 99.5672 68.685C99.5672 68.9634 99.4004 69.1861 99.2892 69.4088C99.1224 69.6315 98.9556 69.7986 98.7333 69.9656C98.5109 70.1326 98.2885 70.1883 98.0106 70.244C97.7326 70.244 97.5102 70.244 97.2323 70.244C96.7319 70.244 96.2316 70.0213 95.898 69.6872C95.5645 69.3532 95.3421 68.8521 95.3421 68.351C95.3421 67.9612 95.4533 67.5715 95.6757 67.2375C95.898 66.9034 96.2316 66.6807 96.5652 66.5137V64.1753H93.8411C93.8411 64.1753 93.6187 64.1753 93.5631 64.1753C93.4519 64.1753 93.3964 64.0639 93.3408 64.0082C93.2852 63.9526 93.2296 63.8412 93.174 63.7855C93.174 63.6742 93.174 63.6185 93.174 63.5071V51.9265L91.0059 49.9778V69.2975C91.2282 70.8564 92.0065 72.2483 93.2296 73.2505C94.4526 74.2527 95.9536 74.7538 97.5102 74.6981C99.1224 74.6424 100.679 73.9186 101.791 72.7494C102.903 71.5802 103.514 70.0213 103.514 68.4067V61.3358V61.5585L103.347 61.5028Z" fill="#FECB46"/>
</g>
</g>
<defs>
<clipPath id="clip0_116_13587">
<rect width="137.811" height="157.929" fill="white"/>
</clipPath>
<clipPath id="clip1_116_13587">
<rect width="134.257" height="154.001" fill="white" transform="translate(0 -0.0195312)"/>
</clipPath>
</defs>
</svg>
