<svg xmlns="http://www.w3.org/2000/svg" width="33" height="32" viewBox="0 0 33 32"><g transform="translate(.1)" fill-rule="nonzero" fill="none"><circle fill="#FFF" cx="16" cy="16" r="16"></circle><g fill="#0033AD"><path d="M11.53 16.113a1.349 1.349 0 0 0 1.273 1.429h.085c.75 0 1.358-.608 1.344-1.358 0-.75-.609-1.358-1.358-1.344-.708-.014-1.302.552-1.344 1.273zM6.493 15.76a.442.442 0 0 0-.466.41c-.015.24.17.452.41.467a.45.45 0 0 0 .467-.41.442.442 0 0 0-.41-.467zM11.445 8.262a.457.457 0 0 0 .198-.594c-.1-.227-.368-.298-.594-.199-.227.1-.297.368-.198.58.113.227.382.326.594.213zM12.817 10.653a.68.68 0 0 0 .297-.906.68.68 0 0 0-.905-.297.68.68 0 0 0-.297.905.68.68 0 0 0 .905.298zM8.205 12.294c.255.17.594.099.778-.156a.569.569 0 0 0-.155-.778.569.569 0 0 0-.778.155.549.549 0 0 0 .155.779zM9.026 15.519a.668.668 0 0 0-.708.637.678.678 0 0 0 .637.707.668.668 0 0 0 .707-.637.687.687 0 0 0-.636-.707zM8.276 20.06a.558.558 0 0 0 .51.99.558.558 0 0 0-.51-.99zM10.907 14.118a.797.797 0 1 0-.226-1.103.785.785 0 0 0 .226 1.103zM19.225 10.596a.68.68 0 0 0 .934-.198.68.68 0 0 0-.198-.934.68.68 0 0 0-.934.198.68.68 0 0 0 .198.934zM20.612 8.22c.198.127.467.07.608-.128.142-.198.07-.467-.127-.608-.198-.142-.467-.071-.608.127a.452.452 0 0 0 .127.608zM19.339 14.826a1.349 1.349 0 0 0-1.43 1.273 1.349 1.349 0 0 0 1.274 1.429h.07c.75 0 1.345-.608 1.345-1.358a1.318 1.318 0 0 0-1.26-1.344zM13.27 14.034c.226.452.693.75 1.216.75.75 0 1.344-.609 1.344-1.359a1.345 1.345 0 0 0-1.952-1.202 1.334 1.334 0 0 0-.608 1.81zM23.866 12.294a.562.562 0 0 0 .24-.75.562.562 0 0 0-.75-.24.558.558 0 0 0 .51.99zM20.442 12.732a.787.787 0 0 0-.354 1.061.787.787 0 0 0 1.061.354c.382-.198.552-.68.354-1.061a.787.787 0 0 0-1.06-.354zM16.014 8.007a.576.576 0 0 0 .594-.523c.029-.312-.226-.566-.523-.595a.566.566 0 0 0-.594.524.567.567 0 0 0 .523.594zM16.014 11.515a.783.783 0 0 0 .835-.75.783.783 0 0 0-.75-.834.783.783 0 0 0-.835.75.792.792 0 0 0 .75.834zM11.7 19.622a.787.787 0 0 0 .353-1.061.787.787 0 0 0-1.061-.354.787.787 0 0 0-.354 1.06.787.787 0 0 0 1.061.355zM16.523 12.676c-.41.622-.24 1.457.397 1.867.622.41 1.457.24 1.867-.396.41-.637.24-1.457-.396-1.868a1.402 1.402 0 0 0-.736-.226 1.41 1.41 0 0 0-1.132.623zM18.872 18.32a1.345 1.345 0 0 0-1.811-.594 1.345 1.345 0 0 0-.594 1.81c.34.666 1.146.934 1.81.595.666-.326.934-1.118.595-1.81.014.013.014.013 0 0zM21.234 18.235a.797.797 0 1 0 .227 1.104.785.785 0 0 0-.227-1.104zM23.837 16.198a.668.668 0 0 0-.636-.707.678.678 0 0 0-.708.636.678.678 0 0 0 .637.708c.354.028.679-.27.707-.637zM25.705 15.717a.442.442 0 0 0-.467.41c-.014.24.17.453.41.467a.45.45 0 0 0 .467-.41.442.442 0 0 0-.41-.467zM23.936 20.06a.569.569 0 0 0-.778.156.569.569 0 0 0 .156.778c.255.17.594.099.778-.156a.549.549 0 0 0-.156-.778zM11.53 24.134a.452.452 0 0 0-.609.128.452.452 0 0 0 .128.608c.198.127.466.07.608-.127a.452.452 0 0 0-.127-.609zM20.697 24.092a.457.457 0 0 0-.198.594c.099.226.367.297.594.198.226-.099.297-.368.198-.58-.113-.226-.382-.325-.594-.212zM15.618 19.678c.41-.622.24-1.457-.396-1.867a1.337 1.337 0 0 0-1.867.396c-.41.622-.24 1.457.396 1.867.226.142.48.227.735.227a1.34 1.34 0 0 0 1.132-.623zM12.916 21.758a.68.68 0 0 0-.934.198.68.68 0 0 0 .198.933.68.68 0 0 0 .934-.198.68.68 0 0 0-.198-.933zM16.07 24.347a.576.576 0 0 0-.593.523c-.029.297.226.566.523.594a.566.566 0 0 0 .594-.523.567.567 0 0 0-.523-.594zM16.07 20.838a.783.783 0 0 0-.834.75.783.783 0 0 0 .75.835c.438.014.82-.312.835-.75a.8.8 0 0 0-.75-.835zM19.324 21.701a.68.68 0 0 0-.297.906.68.68 0 0 0 .906.297.68.68 0 0 0 .297-.906.676.676 0 0 0-.906-.297z"></path></g></g></svg>