<svg xmlns="http://www.w3.org/2000/svg" viewBox="0 0 33 32"><g fill="none" transform="translate(.32)"><circle cx="16" cy="16" r="16" fill="#0AC18E"></circle><path fill="#FFF" d="M20.99 10.63c-.8-1.83-2.65-2.22-4.91-1.84l-.73-2.82-1.71.45.71 2.8c-.45.12-.91.22-1.37.35l-.72-2.8-1.71.45.73 2.82-3.46.9.47 1.83s1.26-.36 1.24-.33c.7-.18 1.03.17 1.19.5l2 7.72c.02.23-.02.6-.5.74.03.01-1.25.32-1.25.32l.19 2.14 3.46-.89.74 2.85 1.71-.44-.73-2.87c.47-.11.93-.22 1.37-.34l.73 2.85 1.72-.44-.74-2.85c2.64-.64 4.5-2.3 4.12-4.85-.24-1.53-1.92-2.8-3.3-2.93.85-.76 1.28-1.87.75-3.32zm-.82 6.72c.34 2.52-3.17 2.83-4.32 3.13l-1.01-3.77c1.16-.3 4.75-1.58 5.33.64zm-2.12-5.14c.37 2.24-2.63 2.5-3.6 2.75l-.92-3.42c.97-.24 3.79-1.4 4.52.67z"></path></g></svg>