<svg xmlns="http://www.w3.org/2000/svg" viewBox="0 0 32 32"><g fill="none" fill-rule="evenodd"><circle cx="16" cy="16" r="16" fill="#C3A634"></circle><path fill="#FFF" d="M13.25 14.61h4.31v2.29h-4.31v4.81h2.72a6.8 6.8 0 0 0 2.64-.43c.69-.3 1.23-.7 1.62-1.21a4.4 4.4 0 0 0 .8-1.82 11.4 11.4 0 0 0 .2-2.25 11.4 11.4 0 0 0-.2-2.25 4.4 4.4 0 0 0-.8-1.82c-.4-.51-.93-.92-1.62-1.2a6.81 6.81 0 0 0-2.64-.44h-2.72v4.32zm-2.77 2.29H9v-2.3h1.48V8h6.55a7.3 7.3 0 0 1 3.14.63c.89.42 1.61.99 2.17 1.71.56.73.98 1.57 1.25 2.55.27.97.41 2 .41 3.11a11.47 11.47 0 0 1-.41 3.12 7.34 7.34 0 0 1-1.25 2.54 5.85 5.85 0 0 1-2.17 1.71 7.3 7.3 0 0 1-3.14.63h-6.55v-7.1z"></path></g></svg>