<svg xmlns="http://www.w3.org/2000/svg" width="33" height="32" viewBox="0 0 33 32"><g transform="translate(.44)" fill-rule="nonzero" fill="none"><circle fill="#FFF" cx="16" cy="16" r="14.268"></circle><path d="M16 0C7.163 0 0 7.163 0 16s7.163 16 16 16c8.836 0 16-7.163 16-16A15.954 15.954 0 0 0 16.093 0H16zm.271 16.542-1.666 5.618h8.91a.45.45 0 0 1 .466.434v.147l-.775 2.673a.577.577 0 0 1-.581.426H8.988l2.286-7.787-2.557.775.58-1.782 2.558-.775L15.07 5.346a.585.585 0 0 1 .581-.426H19.1a.45.45 0 0 1 .465.434v.147l-2.712 9.22 2.557-.774-.542 1.86-2.596.735z" fill="#345D9D"></path></g></svg>