<svg xmlns="http://www.w3.org/2000/svg" width="33" height="34" viewBox="0 0 33 34"><g transform="translate(.76 .708)" fill-rule="nonzero" fill="none"><ellipse fill="#FFF" cx="16.11" cy="16.292" rx="16.11" ry="16.292"></ellipse><path d="M25.825 13.151c-.912-.85-2.165-2.131-3.176-3.053l-.057-.044a.991.991 0 0 0-.342-.187C19.785 9.407 8.333 7.231 8.105 7.26c-.057.014-.128.029-.17.072l-.058.043a.604.604 0 0 0-.157.26l-.014.043v.245c1.296 3.63 6.382 15.528 7.393 18.322.057.188.17.548.385.562h.042c.114 0 .599-.648.599-.648s8.746-10.732 9.629-11.87c.114-.144.213-.288.299-.446a.704.704 0 0 0-.228-.692zm-7.45 1.254 3.732-3.126 2.194 2.045-5.926 1.08zm-1.453-.216-6.424-5.33 10.398 1.944-3.974 3.386zm.584 1.397 6.581-1.066-7.52 9.161.94-8.095zM9.63 9.392l6.766 5.805-.983 8.484L9.63 9.391z" fill="#FF060A"></path></g></svg>