<?xml version="1.0" encoding="UTF-8"?>
<svg width="512px" height="512px" viewBox="0 0 512 512" version="1.1" xmlns="http://www.w3.org/2000/svg" xmlns:xlink="http://www.w3.org/1999/xlink">
    <!-- Generator: Sketch 52 (66869) - http://www.bohemiancoding.com/sketch -->
    <desc>Created with Sketch.</desc>
    <g id="az" stroke="none" stroke-width="1" fill="none" fill-rule="evenodd">
        <g>
            <path d="M512,256 C512,224.686 506.368,194.689 496.077,166.957 L256,155.826 L15.923,166.956 C5.633,194.689 0,224.686 0,256 C0,287.314 5.633,317.311 15.923,345.043 L256,356.174 L496.077,345.044 C506.368,317.311 512,287.314 512,256 Z" id="Path" fill="#D80027"></path>
            <path d="M256,512 C366.071,512 459.906,442.528 496.077,345.043 L15.923,345.043 C52.094,442.528 145.929,512 256,512 Z" id="Path" fill="#6DA544"></path>
            <path d="M15.923,166.957 L496.078,166.957 C459.906,69.472 366.071,0 256,0 C145.929,0 52.094,69.472 15.923,166.957 Z" id="Path" fill="#338AF3"></path>
            <g id="Group" transform="translate(144.000000, 166.000000)" fill="#F0F0F0">
                <path d="M117.565,162.348 C77.609,162.348 45.217,129.956 45.217,90 C45.217,50.044 77.609,17.652 117.565,17.652 C130.023,17.652 141.746,20.802 151.98,26.348 C135.924,10.647 113.968,0.956 89.739,0.956 C40.561,0.956 0.696,40.822 0.696,89.999 C0.696,139.176 40.562,179.042 89.739,179.042 C113.969,179.042 135.925,169.351 151.98,153.65 C141.746,159.198 130.023,162.348 117.565,162.348 Z" id="Path"></path>
                <polygon id="Path" points="173.217 39.913 182.8 66.864 208.634 54.582 196.353 80.416 223.304 90 196.353 99.584 208.634 125.418 182.8 113.136 173.217 140.087 163.635 113.136 137.8 125.418 150.082 99.584 123.13 90 150.082 80.416 137.8 54.582 163.635 66.864"></polygon>
            </g>
        </g>
    </g>
</svg>