<?xml version="1.0" encoding="UTF-8"?>
<svg width="512px" height="512px" viewBox="0 0 512 512" version="1.1" xmlns="http://www.w3.org/2000/svg" xmlns:xlink="http://www.w3.org/1999/xlink">
    <!-- Generator: Sketch 52 (66869) - http://www.bohemiancoding.com/sketch -->
    <desc>Created with Sketch.</desc>
    <g id="de" stroke="none" stroke-width="1" fill="none" fill-rule="evenodd">
        <g id="Path">
            <path d="M15.923,345.043 C52.094,442.527 145.929,512 256,512 C366.071,512 459.906,442.527 496.077,345.043 L256,322.783 L15.923,345.043 Z" fill="#FFDA44"></path>
            <path d="M256,0 C145.929,0 52.094,69.472 15.923,166.957 L256,189.217 L496.077,166.956 C459.906,69.472 366.071,0 256,0 Z" fill="#000000"></path>
            <path d="M15.923,166.957 C5.633,194.69 0,224.686 0,256 C0,287.314 5.633,317.31 15.923,345.043 L496.078,345.043 C506.368,317.31 512,287.314 512,256 C512,224.686 506.368,194.69 496.077,166.957 L15.923,166.957 Z" fill="#D80027"></path>
        </g>
    </g>
</svg>