<?xml version="1.0" encoding="UTF-8"?>
<svg width="512px" height="512px" viewBox="0 0 512 512" version="1.1" xmlns="http://www.w3.org/2000/svg" xmlns:xlink="http://www.w3.org/1999/xlink">
    <!-- Generator: Sketch 52 (66869) - http://www.bohemiancoding.com/sketch -->
    <desc>Created with Sketch.</desc>
    <g id="pt" stroke="none" stroke-width="1" fill="none" fill-rule="evenodd">
        <g>
            <path d="M0,256 C0,366.07 69.472,459.905 166.955,496.076 L189.217,255.999 L166.955,15.923 C69.472,52.095 0,145.929 0,256 Z" id="Path" fill="#6DA544"></path>
            <path d="M512,256 C512,114.616 397.384,0 256,0 C224.686,0 194.689,5.633 166.955,15.923 L166.955,496.077 C194.689,506.368 224.686,512 256,512 C397.384,512 512,397.384 512,256 Z" id="Path" fill="#D80027"></path>
            <circle id="Oval" fill="#FFDA44" cx="166.957" cy="256" r="89.043"></circle>
            <path d="M116.87,211.478 L116.87,267.13 C116.87,294.792 139.294,317.217 166.957,317.217 C194.62,317.217 217.044,294.793 217.044,267.13 L217.044,211.478 L116.87,211.478 Z" id="Path" fill="#D80027"></path>
            <path d="M166.957,283.826 C157.751,283.826 150.261,276.336 150.261,267.13 L150.261,244.87 L183.652,244.87 L183.652,267.131 C183.652,276.336 176.162,283.826 166.957,283.826 Z" id="Path" fill="#F0F0F0"></path>
        </g>
    </g>
</svg>