<svg width="69" height="22" viewBox="0 0 69 22" xmlns="http://www.w3.org/2000/svg">
    <path d="M3.68 0h61.64c1.035 0 1.955.468 2.645 1.053C68.54 1.755 69 2.691 69 3.745v14.51c0 1.054-.46 1.99-1.035 2.692-.69.702-1.61 1.053-2.645 1.053H3.68c-1.035 0-1.955-.351-2.645-1.053C.46 20.245 0 19.309 0 18.255V3.745c0-1.054.46-1.99 1.035-2.692C1.725.468 2.645 0 3.68 0zm61.64.936H3.68a2.75 2.75 0 0 0-1.955.82A2.848 2.848 0 0 0 .92 3.744v14.51c0 .82.345 1.522.805 1.99.46.585 1.15.819 1.955.819h61.64c.805 0 1.495-.234 1.955-.82.46-.467.805-1.17.805-1.989V3.745c0-.82-.345-1.522-.805-1.99A2.75 2.75 0 0 0 65.32.936zm-40.25 7.49h.69V6.319h.575c.575 0 .805.351.92.936.115.702.23 1.054.345 1.17h.69c-.115-.116-.23-.585-.46-1.287-.115-.468-.23-.819-.69-1.053.575-.117.92-.585.92-1.287 0-.351-.115-.702-.345-.936-.345-.234-.69-.351-1.38-.351-.46 0-.92 0-1.265.117v4.798zm.69-4.33c.115-.117.23-.117.575-.117.69 0 1.15.35 1.15.936 0 .585-.46.936-1.15.936h-.575V4.096zm5.75 1.521h-1.955V4.096h2.07V3.51H28.98v4.915h2.76v-.469h-2.185V6.202h1.955v-.585zm.69 2.574c.345.235.805.352 1.265.352 1.15 0 1.725-.703 1.725-1.405 0-.702-.46-1.17-1.265-1.404-.69-.351-.92-.585-.92-1.053 0-.234.23-.702.92-.702.46 0 .69.117.92.234l.115-.468a2.264 2.264 0 0 0-1.035-.234c-.92 0-1.61.585-1.61 1.287s.575 1.17 1.265 1.404c.69.234.92.468.92.936 0 .585-.345.936-.92.936-.46 0-.92-.234-1.15-.35l-.23.467zm3.795.235h.69V6.553h.46c.575 0 1.15-.234 1.495-.585.23-.234.345-.585.345-1.053 0-.351-.115-.702-.345-.936-.345-.351-.805-.468-1.38-.468-.575 0-.92 0-1.265.117v4.798zm.69-4.33c.115 0 .345-.117.575-.117.69 0 1.15.35 1.15 1.053 0 .585-.46 1.053-1.265 1.053-.23 0-.345-.117-.46-.117V4.096zm5.175-.585c-1.38 0-2.3.936-2.3 2.574 0 1.521.92 2.458 2.185 2.458 1.265 0 2.3-.937 2.3-2.575 0-1.521-.92-2.457-2.185-2.457zm-.115.468c1.035 0 1.61 1.053 1.61 1.99 0 1.17-.575 2.105-1.61 2.105-.92 0-1.495-.936-1.495-1.989 0-1.17.46-2.106 1.495-2.106zm3.68 4.447V6.319c0-.819 0-1.404-.115-1.99.345.586.575 1.054.92 1.64l1.61 2.457h.575V3.51h-.575v2.106c0 .82 0 1.404.115 1.99-.23-.469-.575-.937-.92-1.522L45.54 3.511h-.69v4.915h.575zm3.91-.235c.23.235.69.352 1.15.352 1.15 0 1.725-.703 1.725-1.405 0-.702-.46-1.17-1.265-1.404-.69-.351-.92-.585-.92-1.053 0-.234.23-.702.92-.702.46 0 .69.117.92.234l.115-.468a2.264 2.264 0 0 0-1.035-.234c-.92 0-1.61.585-1.61 1.287s.575 1.17 1.38 1.404c.575.234.805.468.805.936 0 .585-.345.936-.92.936-.46 0-.92-.234-1.15-.35l-.115.467zm3.68-4.68v4.915h.69V3.51h-.69zm1.725 4.915c.23.117.575.117 1.035.117.805 0 1.265-.117 1.61-.469.23-.234.46-.585.46-1.053 0-.702-.575-1.053-1.035-1.17.575-.234.805-.585.805-1.053 0-.468-.115-.702-.345-.936-.345-.234-.69-.351-1.38-.351-.46 0-.805 0-1.15.117v4.798zm.69-4.33c.115-.117.23-.117.575-.117.575 0 1.035.234 1.035.819 0 .468-.46.819-1.035.819h-.575V4.096zm0 1.99h.46c.69 0 1.265.35 1.265.935 0 .702-.575 1.053-1.265 1.053-.23 0-.345-.117-.46-.117V6.085zm3.22 2.34h2.76v-.469h-2.07V3.511h-.69v4.915zm5.865-2.809h-1.84V4.096h1.955V3.51H62.1v4.915h2.645v-.469h-2.07V6.202h1.84v-.585zm-33.81 7.957h-2.76v1.522h1.15v1.755c-.115.117-.46.117-.805.117-1.38 0-2.3-1.053-2.3-2.691 0-1.873 1.035-2.809 2.415-2.809.805 0 1.265.234 1.725.468l.345-1.521c-.345-.234-1.15-.468-2.07-.468-2.415 0-4.14 1.638-4.14 4.33 0 1.287.345 2.34 1.035 3.16.69.701 1.61 1.052 2.99 1.052.92 0 1.955-.234 2.415-.468v-4.447zm5.06 2.692.575 2.106h1.725l-2.185-8.308h-2.185l-2.185 8.308h1.61l.575-2.106h2.07zm-1.84-1.404.46-1.756c.115-.468.23-1.17.345-1.638.115.468.23 1.053.345 1.638l.46 1.756h-1.61zm11.385 3.51h1.61l-.345-8.308H44.39l-.805 2.808c-.23.937-.46 1.99-.69 2.926-.115-.936-.345-1.99-.575-2.926l-.69-2.808h-2.3l-.46 8.308h1.61l.115-3.16c0-1.052.115-2.34.115-3.393.23 1.053.46 2.224.69 3.277l.805 3.16h1.265l.92-3.277c.23-.936.575-2.107.805-3.16v3.394l.115 3.16zm2.875-8.308v8.308h1.725v-8.308h-1.725zm4.6 8.308v-6.085c.345.936.805 1.99 1.265 2.926l1.61 3.16h1.725v-8.31H55.89v2.458c0 1.17 0 2.34.115 3.51a32.097 32.097 0 0 0-1.265-2.925l-1.495-3.042H51.29v8.308h1.495zm12.075-4.798h-2.645v1.522h1.035v1.755c-.115.117-.345.117-.805.117-1.265 0-2.3-1.053-2.3-2.691 0-1.873 1.035-2.809 2.415-2.809.805 0 1.38.234 1.725.468l.345-1.521c-.345-.234-1.035-.468-1.955-.468-2.415 0-4.255 1.638-4.255 4.33 0 1.287.345 2.34 1.035 3.16.69.701 1.61 1.052 2.99 1.052.92 0 1.955-.234 2.415-.468v-4.447zm-52.44 4.681H9.545v-5.734H8.74c-1.15.117-1.725.585-2.07 2.34-.345 1.756-.69 3.043-.92 3.394H2.875c.23-.585.69-2.457 1.035-4.095.345-1.288.805-2.34 1.725-2.692v-.117c-1.15-.351-2.3-1.638-2.3-3.51 0-1.405.46-2.341 1.15-3.043.92-.82 2.3-1.17 4.14-1.17 1.495 0 2.875.117 3.795.35v1.288c1.265-1.053 2.875-1.638 4.83-1.638 1.61 0 2.875.35 3.45.702l-.575 2.574c-.69-.35-1.495-.585-2.99-.585-2.3 0-4.14 1.521-4.14 4.681 0 3.043 1.61 4.798 4.025 4.798.575 0 1.15-.117 1.38-.234V12.52h-1.955V9.947h4.715v7.606c-.92.351-2.53.82-4.255.82-1.955 0-3.335-.469-4.485-1.288v1.17zM9.545 6.202c-.115 0-.575-.117-1.265-.117-1.265 0-2.07.702-2.07 1.99 0 1.287.805 2.106 2.3 2.106h1.035V6.202z" fill="#FFF" fill-rule="nonzero"/>
</svg>
