<?xml version="1.0" encoding="UTF-8"?>
<svg id="Layer_3" data-name="Layer 3" xmlns="http://www.w3.org/2000/svg" viewBox="0 0 30 30">
  <defs>
    <style>
      .cls-1 {
        fill: #e5e5e5;
      }
    </style>
  </defs>
  <polygon class="cls-1" points="15.76 14.57 20.87 22 18.79 22 14.6 15.92 14.01 15.05 9.15 8 11.23 8 15.17 13.7 15.76 14.57"/>
  <path class="cls-1" d="m15,.25C6.85.25.25,6.85.25,15s6.6,14.75,14.75,14.75,14.75-6.6,14.75-14.75S23.15.25,15,.25Zm3.94,24.56l-.38-.56-4.91-7.13-6.61,7.69h-1.62l7.5-8.74L6.82,7.19l-1.38-2h5.64l.38.56,4.6,6.67,4.82-5.61,1.4-1.62h1.62l-7.12,8.29,6.43,9.33,1.37,2h-5.64Z"/>
</svg>